<svg id="圖層_1" data-name="圖層 1" xmlns="http://www.w3.org/2000/svg" xmlns:xlink="http://www.w3.org/1999/xlink" viewBox="0 0 229.93 45.87"><defs><style>.cls-1{fill:url(#未命名漸層_13);}.cls-2{fill:url(#未命名漸層_2);}.cls-3{fill:#231815;}</style><linearGradient id="未命名漸層_13" x1="-1.98" y1="40.89" x2="26.53" y2="12.38" gradientUnits="userSpaceOnUse"><stop offset="0" stop-color="#004987"/><stop offset="1" stop-color="#45a041"/></linearGradient><linearGradient id="未命名漸層_2" x1="3.61" y1="33.06" x2="32.12" y2="4.55" gradientUnits="userSpaceOnUse"><stop offset="0" stop-color="#f18a00"/><stop offset="1" stop-color="#ca003d"/></linearGradient></defs><path class="cls-1" d="M5.92,33.13a25.17,25.17,0,0,1,17-23.79.32.32,0,0,0,.2-.36.3.3,0,0,0-.34-.24A25.79,25.79,0,0,0,2.42,45.26a.31.31,0,0,0,.28.18H8.6a.33.33,0,0,0,.27-.15.34.34,0,0,0,0-.31A25.17,25.17,0,0,1,5.92,33.13Z"/><path class="cls-2" d="M27.72.18A.3.3,0,0,0,27.44,0h-5.9a.33.33,0,0,0-.27.15.34.34,0,0,0,0,.31,25.28,25.28,0,0,1,2.95,11.85A25.19,25.19,0,0,1,7.28,36.1a.31.31,0,0,0-.21.36.3.3,0,0,0,.34.24A25.77,25.77,0,0,0,30.14,11.1,25.49,25.49,0,0,0,27.72.18Z"/><path class="cls-3" d="M35.51,31.41l3.27-17.24H43.1l2.28,6.57c.69,2.2,1.15,4,1.56,5.89H47a40.45,40.45,0,0,1,.79-6.2L49,14.17h3.42L49.16,31.41H45.35L43,24.53a53.76,53.76,0,0,1-1.69-6l-.07,0c-.21,1.67-.62,4.12-1.13,6.83l-1.13,6Z"/><path class="cls-3" d="M58.7,17.39H54.15l.64-3.22H67.6L67,17.39H62.38l-2.63,14H56.07Z"/><path class="cls-3" d="M73.66,14.17l-1.89,9.92a9.71,9.71,0,0,0-.18,2.05,2.3,2.3,0,0,0,2.51,2.45c1.91,0,3.19-1.27,3.81-4.47l1.89-10h3.68L81.62,24c-1,5.22-3.3,7.73-8,7.73-3.56,0-5.73-1.82-5.73-5.5a13.69,13.69,0,0,1,.25-2.4L70,14.17Z"/><path class="cls-3" d="M101.92,31a11.77,11.77,0,0,1-4.55.74c-4.56,0-7.63-2.76-7.63-7.31a10,10,0,0,1,4.35-8.62A10.8,10.8,0,0,1,100.44,14a8.23,8.23,0,0,1,3.75.74l-1,3a7.74,7.74,0,0,0-3.12-.56,6.15,6.15,0,0,0-3.94,1.33A7,7,0,0,0,93.76,24c0,2.73,1.54,4.58,4.58,4.58a9,9,0,0,0,3.27-.57Z"/><path class="cls-3" d="M107.48,28.27l-1.43,3.14h-2.74l5.87-12.07h3.31l1.42,12.07H111.2L111,28.27Zm3.37-2-.24-2.6c0-.66-.12-1.63-.18-2.36h0c-.31.73-.65,1.66-1,2.36l-1.2,2.6Z"/><path class="cls-3" d="M115.48,31.41l2.29-12.07h3l1.59,4.6a40.49,40.49,0,0,1,1.09,4.12h.06a28.79,28.79,0,0,1,.55-4.34l.83-4.38h2.4L125,31.41h-2.67l-1.68-4.82a36.6,36.6,0,0,1-1.18-4.21l-.05,0c-.15,1.17-.43,2.88-.79,4.78l-.79,4.23Z"/><path class="cls-3" d="M136.73,31.07a8.42,8.42,0,0,1-3.19.51c-3.19,0-5.33-1.93-5.33-5.11a7,7,0,0,1,3-6,7.59,7.59,0,0,1,4.44-1.29,5.77,5.77,0,0,1,2.63.52l-.7,2.1a5.23,5.23,0,0,0-2.18-.4,4.27,4.27,0,0,0-2.76.94A4.86,4.86,0,0,0,131,26.18a2.92,2.92,0,0,0,3.2,3.2,6.34,6.34,0,0,0,2.29-.39Z"/><path class="cls-3" d="M146.22,26.29h-4.3l-.56,2.92h4.82l-.41,2.2h-7.4l2.3-12.07h7.14l-.43,2.2h-4.55l-.5,2.58h4.3Z"/><path class="cls-3" d="M150.17,19.57a15.26,15.26,0,0,1,3.22-.32,6.21,6.21,0,0,1,3.17.7,2.6,2.6,0,0,1,1.34,2.36,3.53,3.53,0,0,1-2.73,3.4v.07c.71.31,1,1.12,1.14,2.21a19.9,19.9,0,0,0,.47,3.42h-2.65a19.72,19.72,0,0,1-.36-2.85c-.11-1.47-.61-1.92-1.63-1.92h-.79l-.89,4.77H147.9Zm1.56,5.14h1.07a2.17,2.17,0,0,0,2.42-2c0-1-.82-1.4-1.84-1.4a4.48,4.48,0,0,0-1,.09Z"/><path class="cls-3" d="M176.78,30.92a11.83,11.83,0,0,1-4.56.74c-4.55,0-7.62-2.76-7.62-7.31A10,10,0,0,1,169,15.73a10.79,10.79,0,0,1,6.34-1.84,8.11,8.11,0,0,1,3.76.74l-1,3a7.7,7.7,0,0,0-3.12-.56A6.19,6.19,0,0,0,171,18.39a7,7,0,0,0-2.37,5.55c0,2.74,1.53,4.58,4.57,4.58a9,9,0,0,0,3.28-.57Z"/><path class="cls-3" d="M186.82,26.29h-4.29L182,29.21h4.82l-.41,2.2H179l2.29-12.07h7.15l-.43,2.2h-4.55l-.5,2.58h4.29Z"/><path class="cls-3" d="M188.5,31.41l2.3-12.07h3l1.6,4.6c.48,1.54.8,2.79,1.09,4.12h.05a30.35,30.35,0,0,1,.56-4.34l.82-4.38h2.4l-2.27,12.07H195.4l-1.69-4.82a38.74,38.74,0,0,1-1.18-4.21l-.05,0c-.14,1.17-.43,2.88-.79,4.78l-.79,4.23Z"/><path class="cls-3" d="M204.74,21.59h-3.19l.45-2.25h9l-.43,2.25h-3.22l-1.84,9.82H202.9Z"/><path class="cls-3" d="M218.24,26.29h-4.3l-.55,2.92h4.81l-.41,2.2H210.4l2.29-12.07h7.14l-.43,2.2h-4.54l-.51,2.58h4.3Z"/><path class="cls-3" d="M222.19,19.57a15.37,15.37,0,0,1,3.23-.32,6.2,6.2,0,0,1,3.16.7,2.6,2.6,0,0,1,1.35,2.36,3.54,3.54,0,0,1-2.74,3.4v.07c.71.31,1,1.12,1.14,2.21a21,21,0,0,0,.47,3.42h-2.65a19.72,19.72,0,0,1-.36-2.85c-.11-1.47-.61-1.92-1.63-1.92h-.79l-.89,4.77h-2.56Zm1.56,5.14h1.07a2.17,2.17,0,0,0,2.42-2c0-1-.82-1.4-1.84-1.4a4.31,4.31,0,0,0-1,.09Z"/><path class="cls-3" d="M43.82,36.74v9.13h-.75v-.49H36v.49h-.74V36.74Zm-.75,7.94V37.45H36v7.23Zm-3.5-1.59c-1.08.21-2.18.43-3,.58l-.11-.58c.79-.13,1.94-.34,3.09-.55ZM42.13,40A8.07,8.07,0,0,1,41,42.6c.22.56.5.92.84,1,.14,0,.25-.41.32-1.08a1.85,1.85,0,0,0,.5.34c-.14,1.15-.49,1.57-1,1.36a1.69,1.69,0,0,1-1.07-1,6.84,6.84,0,0,1-1.37,1.21,4.15,4.15,0,0,0-.45-.5,5.37,5.37,0,0,0,1.56-1.37,14.84,14.84,0,0,1-.57-3.1H36.55v-.58h3.11c0-.37-.06-.74-.08-1.12h.66l.06,1.12h2.25v.58h-2.2a15.81,15.81,0,0,0,.38,2.42,7.56,7.56,0,0,0,.77-1.93Zm-2.94,0v2H36.91v-2Zm-.55.49H37.45v1h1.19Zm3.28-1.86a4.29,4.29,0,0,0-1.1-.73l.36-.39a4.33,4.33,0,0,1,1.11.71Z"/><path class="cls-3" d="M56.51,44.62v.77H47.35v-.77h5a36.7,36.7,0,0,0,1.53-5l.86.17a49.15,49.15,0,0,1-1.57,4.88ZM56.1,39H47.8v-.77h8.3Zm-5.9,5.16a33.17,33.17,0,0,0-1-4.41l.77-.19A40.17,40.17,0,0,1,51,44Zm1.49-6.06a12.37,12.37,0,0,0-.49-1.69l.74-.2a12.71,12.71,0,0,1,.54,1.66Z"/><path class="cls-3" d="M68.86,45v.57h-9V45h4.11v-.56H60.82V44h3.11v-.52a14.93,14.93,0,0,0-2.52.14,4,4,0,0,0-.17-.57,2.09,2.09,0,0,0,.56-.13,9.06,9.06,0,0,0,1-.52H61v-.48h6.56v.48H66.41a11.42,11.42,0,0,1,1.47,1l-.48.41a5.14,5.14,0,0,0-.51-.43l-2.21.05V44h3.24v.51H64.68V45Zm-4.93-7.61h-4.1v-.54h4.1v-.62h.75v.62h4.17v.54H64.68V38h3.4v.51H60.59V38h3.34Zm4,4.95v-.94h-7.2v.94H60V40.88h8.61v1.49Zm-.27-3.45v1.52h-6.6V38.92Zm-.76.46H61.77V40h5.12Zm-3.17,3a7.89,7.89,0,0,1-1.09.61l3.61,0c-.27-.18-.55-.34-.79-.47l.09-.09Z"/><path class="cls-3" d="M73.45,40.8A6.4,6.4,0,0,0,72,39.7l.44-.53a6.76,6.76,0,0,1,1.51,1Zm-1.28,4.51A34.31,34.31,0,0,0,73.46,42l.6.41c-.34,1.09-.79,2.37-1.2,3.33Zm1.46-7.23a6.78,6.78,0,0,0-1.43-1.16l.44-.51a5.94,5.94,0,0,1,1.45,1.11Zm1.15,2.05a5.8,5.8,0,0,1-.46,1.44,3.57,3.57,0,0,0-.38-.25,4.7,4.7,0,0,0,.39-1.3Zm1.38-.42a3.43,3.43,0,0,0-.12-.33,7.85,7.85,0,0,0-1.79.33,1.83,1.83,0,0,0-.18-.41c.16,0,.3-.16.48-.37a6.76,6.76,0,0,0,.64-.78,3.92,3.92,0,0,0-1,.14,2.76,2.76,0,0,0-.18-.4c.12,0,.21-.11.32-.26a5.36,5.36,0,0,0,.63-1.3l.49.18a6.89,6.89,0,0,1-.69,1.23l.68,0c.1-.16.19-.32.28-.48l.46.2A9.26,9.26,0,0,1,75,39.1l.91-.12a3.79,3.79,0,0,0-.2-.34l.4-.14a5.3,5.3,0,0,1,.49,1Zm4.8,4a1.24,1.24,0,0,1,0,.31,2.66,2.66,0,0,1-.68,1.58,1.21,1.21,0,0,1-.77.19c-.31,0-.93,0-1.58,0a1.56,1.56,0,0,0-.22-.6c.66.07,1.33.08,1.59.08a.66.66,0,0,0,.44-.09c.17-.11.31-.38.44-.9H74.69a15.19,15.19,0,0,0,.45-1.56H79.8v-.55h-5v-.5h5.75v1.55H75.73l-.15.53ZM75.22,41.4A5.41,5.41,0,0,0,75,40.11l.4-.11a4.93,4.93,0,0,1,.25,1.25Zm.92-1.57A5.28,5.28,0,0,1,76.51,41l-.39.18A5.54,5.54,0,0,0,75.76,40Zm2.75-2H76.41v-.48H77.5a3.52,3.52,0,0,0-.4-.83l.53-.14a5.61,5.61,0,0,1,.44.83l-.45.14h1.27Zm-2.2,2h1.94v1.54H76.69Zm1.93-1.15h-1.9v-.44h1.9Zm-1.9.33h1.9v.43h-1.9Zm.47,1.93h.91v-.69h-.91Zm2.37-.77a6.1,6.1,0,0,1-.44,1.44,3.23,3.23,0,0,0-.41-.27A4.37,4.37,0,0,0,79.12,40ZM81,39.74c0-.11-.09-.24-.15-.39a9.89,9.89,0,0,0-1.81.32,4,4,0,0,0-.17-.41.92.92,0,0,0,.48-.35,6.46,6.46,0,0,0,.64-.8,4,4,0,0,0-1,.16,3.27,3.27,0,0,0-.17-.41c.12,0,.19-.1.31-.26a5.18,5.18,0,0,0,.64-1.29l.48.18a5.58,5.58,0,0,1-.69,1.22l.68-.05a3.24,3.24,0,0,0,.28-.47l.48.21a11.13,11.13,0,0,1-1.27,1.67l.9-.12-.19-.33.37-.15a4.62,4.62,0,0,1,.54,1.1Zm-1,1.74a6,6,0,0,0-.26-1.39l.41-.11a5.46,5.46,0,0,1,.26,1.36Zm.89-1.68a5,5,0,0,1,.45,1.32l-.39.19a6.27,6.27,0,0,0-.43-1.37Z"/><path class="cls-3" d="M89.77,40.05a7.6,7.6,0,0,0,4.06,5,4.14,4.14,0,0,0-.58.73,8.42,8.42,0,0,1-4.11-5.19A7.32,7.32,0,0,1,85,45.82a2.18,2.18,0,0,0-.58-.64,6.76,6.76,0,0,0,4-5.13H84.64v-.79h3.94a23.42,23.42,0,0,0,.15-3h.83a25.53,25.53,0,0,1-.16,3h4.27v.79Z"/><path class="cls-3" d="M106.12,43.8H102V45c0,.41-.08.58-.4.7a6.42,6.42,0,0,1-1.67.1,2.63,2.63,0,0,0-.27-.66c.64,0,1.22,0,1.38,0s.22,0,.22-.19V43.8H96.93v-.66h4.32v-.45a9.56,9.56,0,0,0,1.64-.8h-4V41.3h4.86l.15,0,.47.39A10.78,10.78,0,0,1,102,43v.19h4.13ZM97.9,41.89h-.74V40H98l-.21-3.11a20,20,0,0,0,2-.52l.35.48a10.38,10.38,0,0,1-1.6.41l0,.52h1.5v.53H98.6l0,.57h1.47v.53H98.67l0,.59h5.67c0-.19,0-.38.06-.59h-1.5v-.53h1.54l0-.57H103v-.53h1.56l0-.57H103v-.53h2.39c0,1-.15,2.39-.23,3.32h.81v1.9h-.76v-1.3H97.9Zm4.42-2a5.73,5.73,0,0,0-.74-.61,8.37,8.37,0,0,1-1,.68,3.3,3.3,0,0,0-.42-.41,6.41,6.41,0,0,0,1-.57,7,7,0,0,0-.74-.41l.38-.35c.26.12.53.27.79.42a3.42,3.42,0,0,0,.52-.56l.54.18a6.14,6.14,0,0,1-.6.67,4.33,4.33,0,0,1,.74.58Zm0-1.87a4.51,4.51,0,0,0-.71-.53,6.49,6.49,0,0,1-1,.62,3.42,3.42,0,0,0-.44-.37,6.52,6.52,0,0,0,.92-.54c-.24-.14-.49-.27-.72-.38l.37-.34a6.2,6.2,0,0,1,.77.39,3.9,3.9,0,0,0,.49-.52l.54.15a5.57,5.57,0,0,1-.57.64c.28.18.53.35.71.49Z"/><path class="cls-3" d="M115.17,41.84v.47h2.46v3.5h-.72V45.4H111v.41h-.71v-3.5h2.59v-.47h-3.64v-.55h9.39v.55Zm-5.35-4.76h-.32v-.51H114v.51h-3.61v2.84c0,.38.1.5.47.5h2.19a6.63,6.63,0,0,0,.92-.05c0,.17,0,.38.07.51a4,4,0,0,1-1,.07h-2.26c-.8,0-1.05-.29-1.05-1Zm2.67,2v0a8.68,8.68,0,0,1,1.29.89l-.33.37a9.37,9.37,0,0,0-1.14-.85,2.45,2.45,0,0,1-1.24.91,1.85,1.85,0,0,0-.34-.4,1.75,1.75,0,0,0,1.22-.94h-1.29V38.6H112V38h-.63a2.63,2.63,0,0,1-.39.47,2.55,2.55,0,0,0-.43-.25,3.21,3.21,0,0,0,.76-1.14l.48.12a3.47,3.47,0,0,1-.15.36h2.06V38h-1.17v.57h1.35v.45Zm4.42,5.88V43.75h-1.44c-.73,0-.92-.12-.92-.66v-.31h-1.1c-.12.52-.6.93-2.07,1.17a2,2,0,0,0-.34-.46c1.2-.14,1.63-.41,1.77-.71H111v2.15Zm-5-.84h4.3v.45h-4.3Zm2.68-2.25h-1.08v.47h1.08Zm-.22-3.24a2,2,0,0,0-.43-.49c.78-.31.92-.67.92-1v-.54h2.46v1c0,.19,0,.25.15.25h.45a3,3,0,0,0,.43,0c0,.14,0,.37,0,.52a2.07,2.07,0,0,1-.46,0h-.57c-.55,0-.67-.22-.67-.79v-.4h-1.22a1.51,1.51,0,0,1-.94,1.4h2.81l.13,0,.38.18a3.74,3.74,0,0,1-1.07,1.4c.5.24,1,.48,1.3.67l-.3.47c-.36-.21-.9-.51-1.48-.79a6.58,6.58,0,0,1-1.85.79,2.78,2.78,0,0,0-.33-.51,6.19,6.19,0,0,0,1.56-.56c-.42-.21-.86-.41-1.24-.57l.28-.41c.45.18,1,.41,1.49.64A3.56,3.56,0,0,0,117,39h-2.59v-.44Zm.84,4.18v.31c0,.21.06.24.37.24h1.37v-.54Z"/><path class="cls-3" d="M130.92,43.8h-4.13V45c0,.41-.09.58-.41.7a6.33,6.33,0,0,1-1.66.1,3.06,3.06,0,0,0-.27-.66c.64,0,1.22,0,1.37,0s.22,0,.22-.19V43.8h-4.31v-.66H126v-.45a9.3,9.3,0,0,0,1.65-.8h-4V41.3h4.86l.16,0,.46.39a10.7,10.7,0,0,1-2.33,1.3v.19h4.13Zm-8.23-1.91H122V40h.83l-.21-3.11a19.14,19.14,0,0,0,2-.52l.36.48a10.51,10.51,0,0,1-1.61.41l.05.52h1.49v.53H123.4l0,.57h1.47v.53h-1.44l0,.59h5.66c0-.19,0-.38.07-.59h-1.5v-.53h1.54l.05-.57H127.8v-.53h1.56l0-.57h-1.64v-.53h2.39c-.06,1-.15,2.39-.23,3.32h.8v1.9H130v-1.3h-7.27Zm4.43-2a5.91,5.91,0,0,0-.75-.61,7.61,7.61,0,0,1-1,.68,3.3,3.3,0,0,0-.42-.41,6.41,6.41,0,0,0,1-.57,6.23,6.23,0,0,0-.75-.41l.39-.35c.25.12.52.27.79.42a3.92,3.92,0,0,0,.52-.56l.54.18a7.4,7.4,0,0,1-.6.67,4.77,4.77,0,0,1,.74.58Zm0-1.87a4.64,4.64,0,0,0-.72-.53,6.49,6.49,0,0,1-1,.62,3.29,3.29,0,0,0-.43-.37,6.52,6.52,0,0,0,.92-.54c-.24-.14-.5-.27-.73-.38l.38-.34a8,8,0,0,1,.77.39,4.68,4.68,0,0,0,.49-.52l.53.15a5.46,5.46,0,0,1-.56.64c.28.18.52.35.71.49Z"/><path class="cls-3" d="M137.35,37c-.31.86-.68,1.88-1,2.72a3.29,3.29,0,0,1,.93,2.26,1.49,1.49,0,0,1-.4,1.22,1.07,1.07,0,0,1-.54.2,3.92,3.92,0,0,1-.69,0,1.51,1.51,0,0,0-.2-.69,3.07,3.07,0,0,0,.6,0,.53.53,0,0,0,.32-.1c.17-.11.22-.4.22-.73a3.14,3.14,0,0,0-.92-2.11c.29-.75.6-1.66.82-2.36h-1.37v8.42h-.69V36.69h2.33l.13,0ZM142.56,45c.23,0,.27-.18.29-1.32a1.83,1.83,0,0,0,.66.28c-.06,1.36-.25,1.71-.87,1.71h-.91c-.73,0-.89-.22-.89-1V42h-1.09c-.17,1.92-.67,3.15-2.62,3.84a2.41,2.41,0,0,0-.45-.61c1.78-.57,2.19-1.6,2.33-3.23h-1.44v-.71h5.82V42h-1.83v2.74c0,.27,0,.31.27.31Zm-4.32-5.65h-.71V37.57h2.63a6.1,6.1,0,0,0-.56-1.15l.69-.24a7,7,0,0,1,.67,1.3l-.22.09h2.58v1.82h-.74V38.25h-4.34Zm.12.72v-.7h4.12v.7Z"/><path class="cls-3" d="M167.54,37.28V38h-7.25v2.66c0,1.61-.21,3.82-1.48,5.24a2.74,2.74,0,0,0-.52-.5,5.77,5.77,0,0,0,1.22-3.18c-.43.28-.85.53-1.24.76l-.27-.69c.41-.2,1-.5,1.56-.82,0-.28,0-.55,0-.81V37.28h3.82a6,6,0,0,0-.49-.86l.67-.24a5.41,5.41,0,0,1,.64,1.1Zm-8.74,3.17a8,8,0,0,0-.65-2l.58-.23a7.23,7.23,0,0,1,.68,2Zm1.94.4h2.87v2h-2.87Zm5.62,2.56h.72v2.42h-.72v-.36h-5.51V43.41h.71v1.41h2V43h.73v1.8h2.05Zm-5-1.09H163v-.93h-1.67Zm4.81-2h-4.32v-1.9h4.32ZM165.46,39h-3v.81h3Zm-1.17,1.87h3v2h-3Zm.59,1.47h1.77v-.93h-1.77Z"/><path class="cls-3" d="M176.46,41.84v.47h2.46v3.5h-.72V45.4h-5.94v.41h-.7v-3.5h2.59v-.47h-3.64v-.55h9.38v.55Zm-5.35-4.76h-.32v-.51h4.53v.51h-3.6v2.84c0,.38.1.5.47.5h2.18a6.46,6.46,0,0,0,.92-.05,3.42,3.42,0,0,0,.08.51,4,4,0,0,1-1,.07h-2.25c-.81,0-1-.29-1-1Zm2.66,2v0a8.32,8.32,0,0,1,1.3.89l-.34.37a8.48,8.48,0,0,0-1.13-.85,2.45,2.45,0,0,1-1.24.91A2.18,2.18,0,0,0,172,40a1.75,1.75,0,0,0,1.22-.94h-1.3V38.6h1.38V38h-.63a3.14,3.14,0,0,1-.39.47,2.55,2.55,0,0,0-.43-.25,3.21,3.21,0,0,0,.76-1.14l.48.12a3.47,3.47,0,0,1-.15.36H175V38h-1.16v.57h1.35v.45Zm4.43,5.88V43.75h-1.44c-.73,0-.92-.12-.92-.66v-.31h-1.1c-.12.52-.6.93-2.07,1.17a2,2,0,0,0-.34-.46c1.2-.14,1.63-.41,1.76-.71h-1.83v2.15Zm-5-.84h4.3v.45h-4.3Zm2.69-2.25h-1.08v.47h1.08Zm-.23-3.24a2,2,0,0,0-.42-.49c.77-.31.92-.67.92-1v-.54h2.46v1c0,.19,0,.25.14.25h.46a2.86,2.86,0,0,0,.42,0c0,.14,0,.37,0,.52a1.92,1.92,0,0,1-.45,0h-.57c-.56,0-.67-.22-.67-.79v-.4h-1.22a1.52,1.52,0,0,1-.94,1.4h2.81l.12,0,.39.18a3.74,3.74,0,0,1-1.07,1.4c.5.24,1,.48,1.3.67l-.3.47c-.37-.21-.9-.51-1.48-.79a6.58,6.58,0,0,1-1.85.79,3.42,3.42,0,0,0-.33-.51,6.33,6.33,0,0,0,1.56-.56c-.43-.21-.86-.41-1.24-.57l.28-.41c.45.18,1,.41,1.48.64a3.61,3.61,0,0,0,.79-.77h-2.6v-.44Zm.85,4.18v.31c0,.21,0,.24.36.24h1.38v-.54Z"/><path class="cls-3" d="M191.73,38.12V43H191v-.59h-3v3.39h-.79V42.44h-3v.65h-.76v-5h3.72V36.26H188v1.86Zm-4.54,3.55V38.89h-3v2.78Zm3.76,0V38.89h-3v2.78Z"/><path class="cls-3" d="M197,40.1a22.1,22.1,0,0,1-.91,4.11l-.76-.33a17.1,17.1,0,0,0,.93-3.93Zm1.67-.94v5.17c0,.49.13.58.72.58h2c.64,0,.73-.37.82-2.17a2.41,2.41,0,0,0,.72.35c-.11,2-.35,2.56-1.5,2.56h-2.08c-1.11,0-1.42-.29-1.42-1.33V39.16Zm.22-2.54a19.68,19.68,0,0,1,2.78,2.32l-.55.58a19,19,0,0,0-2.74-2.38Zm4.5,3.06a18.56,18.56,0,0,1,1.38,3.93l-.75.3A19.27,19.27,0,0,0,202.68,40Z"/><path class="cls-3" d="M213.66,41.84v.47h2.46v3.5h-.73V45.4h-5.93v.41h-.7v-3.5h2.58v-.47H207.7v-.55h9.39v.55Zm-5.36-4.76H208v-.51h4.54v.51h-3.61v2.84c0,.38.1.5.48.5h2.18a6.54,6.54,0,0,0,.92-.05c0,.17,0,.38.07.51a4,4,0,0,1-.95.07h-2.25c-.81,0-1.06-.29-1.06-1Zm2.67,2v0a8.68,8.68,0,0,1,1.29.89l-.33.37a8.65,8.65,0,0,0-1.14-.85,2.4,2.4,0,0,1-1.24.91,1.85,1.85,0,0,0-.34-.4,1.7,1.7,0,0,0,1.22-.94h-1.29V38.6h1.37V38h-.63a2.63,2.63,0,0,1-.39.47,2.45,2.45,0,0,0-.42-.25,3.06,3.06,0,0,0,.75-1.14l.49.12-.16.36h2.06V38H211v.57h1.35v.45Zm4.42,5.88V43.75H214c-.74,0-.92-.12-.92-.66v-.31h-1.11c-.11.52-.6.93-2.07,1.17a1.72,1.72,0,0,0-.34-.46c1.2-.14,1.63-.41,1.77-.71h-1.83v2.15Zm-5-.84h4.3v.45h-4.3ZM213,41.84H212v.47H213Zm-.23-3.24a1.85,1.85,0,0,0-.43-.49c.78-.31.92-.67.92-1v-.54h2.46v1c0,.19,0,.25.15.25h.45a3,3,0,0,0,.43,0c0,.14,0,.37.05.52a2,2,0,0,1-.46,0h-.56c-.56,0-.68-.22-.68-.79v-.4h-1.21a1.52,1.52,0,0,1-1,1.4h2.82l.12,0,.38.18a3.83,3.83,0,0,1-1.06,1.4c.49.24,1,.48,1.29.67l-.3.47c-.36-.21-.9-.51-1.48-.79a6.58,6.58,0,0,1-1.85.79,2.78,2.78,0,0,0-.33-.51,6.05,6.05,0,0,0,1.56-.56c-.42-.21-.86-.41-1.24-.57l.28-.41c.45.18,1,.41,1.49.64a3.36,3.36,0,0,0,.78-.77h-2.59v-.44Zm.85,4.18v.31c0,.21.05.24.36.24h1.37v-.54Z"/><path class="cls-3" d="M223.44,37c-.31.86-.68,1.88-1,2.72a3.27,3.27,0,0,1,.94,2.26,1.5,1.5,0,0,1-.41,1.22,1,1,0,0,1-.54.2,3.89,3.89,0,0,1-.69,0,1.63,1.63,0,0,0-.19-.69,3.07,3.07,0,0,0,.6,0,.58.58,0,0,0,.32-.1c.16-.11.21-.4.21-.73a3.1,3.1,0,0,0-.92-2.11c.29-.75.6-1.66.82-2.36h-1.37v8.42h-.69V36.69h2.34l.12,0ZM228.65,45c.23,0,.27-.18.29-1.32a1.69,1.69,0,0,0,.66.28c-.06,1.36-.26,1.71-.88,1.71h-.91c-.72,0-.89-.22-.89-1V42h-1.08c-.18,1.92-.67,3.15-2.63,3.84a2.37,2.37,0,0,0-.44-.61c1.77-.57,2.19-1.6,2.32-3.23h-1.43v-.71h5.81V42h-1.82v2.74c0,.27,0,.31.26.31Zm-4.32-5.65h-.72V37.57h2.63a5.08,5.08,0,0,0-.56-1.15l.69-.24a7.82,7.82,0,0,1,.68,1.3l-.22.09h2.57v1.82h-.73V38.25h-4.34Zm.11.72v-.7h4.13v.7Z"/></svg>