<svg xmlns="http://www.w3.org/2000/svg" xmlns:xlink="http://www.w3.org/1999/xlink" viewBox="0 0 247.58 49.39"><defs><style>.cls-1{fill:url(#未命名漸層_13);}.cls-2{fill:url(#未命名漸層_10);}.cls-3{fill:#fff;}.cls-4{fill:url(#linear-gradient);}</style><linearGradient id="未命名漸層_13" x1="-2.13" y1="44.03" x2="28.57" y2="13.33" gradientUnits="userSpaceOnUse"><stop offset="0" stop-color="#004987"/><stop offset="1" stop-color="#45a041"/></linearGradient><linearGradient id="未命名漸層_10" x1="3.88" y1="35.6" x2="34.59" y2="4.9" gradientUnits="userSpaceOnUse"><stop offset="0" stop-color="#f18a00"/><stop offset="1" stop-color="#ca003d"/></linearGradient><linearGradient id="linear-gradient" x1="98.73" y1="31.8" x2="113.5" y2="17.04" gradientUnits="userSpaceOnUse"><stop offset="0" stop-color="#eb5643"/><stop offset="0.1" stop-color="#ec6644"/><stop offset="0.37" stop-color="#ef8c46"/><stop offset="0.61" stop-color="#f1a747"/><stop offset="0.83" stop-color="#f3b748"/><stop offset="1" stop-color="#f3bd48"/></linearGradient></defs><title>logo_white</title><g id="txt"><path class="cls-1" d="M6.37,35.68A27.12,27.12,0,0,1,24.62,10.06a.34.34,0,0,0-.15-.65A27.78,27.78,0,0,0,2.6,48.73a.34.34,0,0,0,.31.2H9.26a.32.32,0,0,0,.29-.17.35.35,0,0,0,0-.33A27,27,0,0,1,6.37,35.68Z"/><path class="cls-2" d="M29.85.2a.33.33,0,0,0-.3-.2H23.19a.31.31,0,0,0-.28.17.35.35,0,0,0,0,.33,27.13,27.13,0,0,1,3.18,12.75A27.11,27.11,0,0,1,7.83,38.87a.34.34,0,0,0,.15.65A27.75,27.75,0,0,0,32.46,12,27.47,27.47,0,0,0,29.85.2Z"/><path class="cls-3" d="M38.24,33.82l3.52-18.56h4.65l2.45,7.08c.75,2.36,1.24,4.29,1.69,6.33h.08A45.08,45.08,0,0,1,51.48,22l1.27-6.74h3.69l-3.5,18.56h-4.1l-2.59-7.41a57.72,57.72,0,0,1-1.82-6.47l-.08,0c-.22,1.8-.66,4.44-1.21,7.36l-1.22,6.5Z"/><path class="cls-3" d="M63.21,18.73h-4.9L59,15.26H72.79l-.66,3.47h-5L64.34,33.82h-4Z"/><path class="cls-3" d="M79.32,15.26l-2,10.68a10.46,10.46,0,0,0-.19,2.21,2.49,2.49,0,0,0,2.7,2.64c2.06,0,3.44-1.38,4.1-4.82l2-10.71h4l-2,10.54c-1.07,5.62-3.55,8.32-8.59,8.32-3.83,0-6.17-1.95-6.17-5.92a14.12,14.12,0,0,1,.28-2.59l1.95-10.35Z"/><path class="cls-4" d="M109.77,33.3a12.73,12.73,0,0,1-4.9.79c-4.9,0-8.21-3-8.21-7.87a10.83,10.83,0,0,1,4.68-9.28,11.62,11.62,0,0,1,6.83-2,8.61,8.61,0,0,1,4,.81L111.15,19a8.1,8.1,0,0,0-3.36-.61,6.66,6.66,0,0,0-4.24,1.43,7.52,7.52,0,0,0-2.56,6c0,2.94,1.65,4.93,4.93,4.93a9.63,9.63,0,0,0,3.52-.61Z"/><path class="cls-3" d="M115.73,30.44l-1.54,3.38h-3l6.32-13h3.57l1.53,13h-2.92l-.27-3.38Zm3.63-2.11-.25-2.8c-.06-.71-.14-1.75-.2-2.55h0c-.33.8-.7,1.8-1,2.55l-1.29,2.8Z"/><path class="cls-3" d="M124.35,33.82l2.47-13h3.25l1.72,5c.52,1.66.87,3,1.18,4.43H133a31.27,31.27,0,0,1,.6-4.66l.89-4.73h2.58l-2.45,13h-2.87L130,28.63a40.9,40.9,0,0,1-1.28-4.53l-.05,0c-.16,1.26-.46,3.11-.85,5.15l-.85,4.55Z"/><path class="cls-3" d="M147.23,33.45a8.84,8.84,0,0,1-3.43.56c-3.43,0-5.75-2.08-5.75-5.51a7.57,7.57,0,0,1,3.28-6.5,8.16,8.16,0,0,1,4.78-1.39,6.13,6.13,0,0,1,2.83.56l-.75,2.26a5.56,5.56,0,0,0-2.35-.43,4.62,4.62,0,0,0-3,1,5.24,5.24,0,0,0-1.79,4.18,3.16,3.16,0,0,0,3.45,3.45,7,7,0,0,0,2.47-.42Z"/><path class="cls-3" d="M157.44,28.31h-4.62l-.6,3.14h5.19L157,33.82h-8l2.47-13h7.69l-.46,2.38h-4.9L153.26,26h4.63Z"/><path class="cls-3" d="M161.7,21.08a15.47,15.47,0,0,1,3.47-.35,6.72,6.72,0,0,1,3.42.75A2.83,2.83,0,0,1,170,24a3.82,3.82,0,0,1-2.95,3.67v.07c.77.34,1.1,1.2,1.24,2.38a22.25,22.25,0,0,0,.5,3.68H166a21.72,21.72,0,0,1-.38-3.07c-.12-1.58-.66-2.06-1.76-2.06H163l-1,5.13h-2.76Zm1.68,5.53h1.16a2.34,2.34,0,0,0,2.6-2.18c0-1-.89-1.5-2-1.5a4.56,4.56,0,0,0-1.08.09Z"/><path class="cls-3" d="M190.35,33.3a12.73,12.73,0,0,1-4.9.79c-4.9,0-8.21-3-8.21-7.87a10.81,10.81,0,0,1,4.68-9.28,11.62,11.62,0,0,1,6.83-2,8.64,8.64,0,0,1,4.05.81L191.73,19a8.1,8.1,0,0,0-3.36-.61,6.66,6.66,0,0,0-4.24,1.43,7.52,7.52,0,0,0-2.56,6c0,2.94,1.65,4.93,4.92,4.93A9.65,9.65,0,0,0,190,30.1Z"/><path class="cls-3" d="M201.17,28.31h-4.63l-.6,3.14h5.19l-.44,2.37h-8l2.47-13h7.7l-.47,2.38h-4.89L197,26h4.62Z"/><path class="cls-3" d="M203,33.82l2.47-13h3.26l1.71,5c.52,1.66.87,3,1.18,4.43h.06a31.08,31.08,0,0,1,.59-4.66l.89-4.73h2.58l-2.45,13H210.4l-1.81-5.19a38.7,38.7,0,0,1-1.27-4.53l-.06,0c-.15,1.26-.46,3.11-.85,5.15l-.85,4.55Z"/><path class="cls-3" d="M220.46,23.25H217l.48-2.43h9.66l-.46,2.43h-3.47l-2,10.57h-2.77Z"/><path class="cls-3" d="M235,28.31h-4.63l-.6,3.14H235l-.45,2.37h-8l2.47-13h7.69l-.46,2.38h-4.9L230.81,26h4.63Z"/><path class="cls-3" d="M239.26,21.08a15.34,15.34,0,0,1,3.47-.35,6.7,6.7,0,0,1,3.41.75A2.81,2.81,0,0,1,247.58,24a3.82,3.82,0,0,1-3,3.67v.07c.78.34,1.1,1.2,1.24,2.38a22.25,22.25,0,0,0,.5,3.68h-2.86a21.72,21.72,0,0,1-.38-3.07c-.12-1.58-.66-2.06-1.75-2.06h-.85l-1,5.13h-2.75Zm1.67,5.53h1.16a2.34,2.34,0,0,0,2.6-2.18c0-1-.89-1.5-2-1.5a4.46,4.46,0,0,0-1.07.09Z"/><path class="cls-3" d="M47.19,39.56v9.83h-.81v-.52H38.74v.52H38V39.56Zm-.81,8.55V40.33H38.74v7.78ZM42.6,46.39c-1.15.23-2.33.47-3.25.64l-.11-.64c.85-.13,2.08-.36,3.33-.58Zm2.76-3.28a8.61,8.61,0,0,1-1.23,2.76c.23.6.53,1,.9,1,.16.05.27-.44.34-1.16a1.86,1.86,0,0,0,.54.37c-.15,1.23-.52,1.69-1.1,1.46a1.8,1.8,0,0,1-1.16-1.1,6.73,6.73,0,0,1-1.47,1.3,4.73,4.73,0,0,0-.49-.53,5.8,5.8,0,0,0,1.68-1.48,16,16,0,0,1-.61-3.33H39.35v-.63H42.7c0-.4-.06-.79-.09-1.2h.72l.06,1.2h2.43v.63H43.45a16.72,16.72,0,0,0,.41,2.6A7.73,7.73,0,0,0,44.69,43Zm-3.16,0v2.19H39.74V43.15Zm-.6.53H40.32v1.13H41.6Zm3.54-2A4.91,4.91,0,0,0,44,40.89l.39-.41a4.58,4.58,0,0,1,1.2.76Z"/><path class="cls-3" d="M60.85,48v.84H51V48h5.39A35.79,35.79,0,0,0,58,42.61l.94.18c-.46,1.68-1.13,3.83-1.69,5.25Zm-.44-6H51.47v-.82h8.94Zm-6.36,5.56a35.42,35.42,0,0,0-1-4.75l.83-.2a44.51,44.51,0,0,1,1.1,4.73ZM55.66,41a13.82,13.82,0,0,0-.53-1.83l.8-.21a15.33,15.33,0,0,1,.58,1.79Z"/><path class="cls-3" d="M74.15,48.48v.62H64.42v-.62h4.42v-.59H65.49v-.56h3.35v-.55a15.06,15.06,0,0,0-2.72.15,3.19,3.19,0,0,0-.18-.61,2.38,2.38,0,0,0,.6-.15,8.28,8.28,0,0,0,1.1-.55H65.72V45.1h7.06v.52H71.51a12.47,12.47,0,0,1,1.58,1.1l-.51.44c-.14-.13-.34-.29-.55-.46l-2.38.06v.57h3.48v.56H69.65v.59ZM68.84,40.3H64.43v-.59h4.41V39h.81v.67h4.48v.59H69.65v.58h3.66v.56H65.24v-.56h3.6Zm4.29,5.33v-1H65.39v1h-.75V44h9.27v1.61Zm-.29-3.72v1.64h-7.1V41.91Zm-.81.5H66.51v.64H72Zm-3.42,3.21a10.5,10.5,0,0,1-1.16.65l3.88-.06a9.94,9.94,0,0,0-.86-.5l.1-.09Z"/><path class="cls-3" d="M79.09,43.93a6.92,6.92,0,0,0-1.59-1.18l.47-.57a6.68,6.68,0,0,1,1.62,1.12Zm-1.38,4.86A37.4,37.4,0,0,0,79.1,45.2l.65.44c-.37,1.17-.86,2.55-1.29,3.58ZM79.28,41a7.19,7.19,0,0,0-1.53-1.26l.47-.55a6.47,6.47,0,0,1,1.56,1.2Zm1.24,2.2A6.36,6.36,0,0,1,80,44.77a2.23,2.23,0,0,0-.41-.27A5.19,5.19,0,0,0,80,43.1ZM82,42.76c0-.1-.08-.23-.14-.35a8.16,8.16,0,0,0-1.92.35,1.83,1.83,0,0,0-.19-.44,1,1,0,0,0,.51-.4,7.09,7.09,0,0,0,.69-.84,4.16,4.16,0,0,0-1,.15,3.15,3.15,0,0,0-.19-.43c.12,0,.22-.12.34-.28a5.63,5.63,0,0,0,.68-1.4l.53.19a6.22,6.22,0,0,1-.75,1.32l.74,0q.17-.26.3-.51l.5.22a10.68,10.68,0,0,1-1.37,1.8l1-.12c-.07-.14-.15-.25-.21-.38l.42-.14a5.32,5.32,0,0,1,.53,1.12Zm5.16,4.35a2,2,0,0,1,0,.33,2.87,2.87,0,0,1-.74,1.7,1.26,1.26,0,0,1-.83.21c-.33,0-1,0-1.7,0a1.79,1.79,0,0,0-.24-.64c.71.06,1.44.07,1.72.07a.71.71,0,0,0,.46-.09c.19-.12.34-.41.48-1H80.43A16.83,16.83,0,0,0,80.91,46h5v-.59H80.51v-.54h6.18v1.67H81.54a5.32,5.32,0,0,1-.16.57ZM81,44.58a6.94,6.94,0,0,0-.25-1.39l.43-.12a5.28,5.28,0,0,1,.27,1.35Zm1-1.69a7.38,7.38,0,0,1,.4,1.21l-.43.19A5.55,5.55,0,0,0,81.57,43Zm3-2.2H82.27v-.52h1.18a3.83,3.83,0,0,0-.43-.89l.57-.15a6.06,6.06,0,0,1,.48.89l-.49.15H85ZM82.58,42.8h2.09v1.66H82.58Zm2.08-1.24h-2v-.47h2Zm-2,.36h2v.46h-2ZM83.12,44h1v-.75h-1Zm2.55-.84a6.5,6.5,0,0,1-.48,1.56,3.58,3.58,0,0,0-.43-.29,4.64,4.64,0,0,0,.43-1.38Zm1.54-.37c0-.12-.09-.26-.16-.42a14,14,0,0,0-2,.34,4.49,4.49,0,0,0-.19-.44,1,1,0,0,0,.53-.37c.12-.13.39-.45.69-.86a3.65,3.65,0,0,0-1,.17,2.34,2.34,0,0,0-.19-.44c.14,0,.21-.11.34-.28a5.45,5.45,0,0,0,.69-1.39l.52.19a6.21,6.21,0,0,1-.75,1.31l.74,0q.16-.26.3-.51l.51.22a11.69,11.69,0,0,1-1.37,1.8l1-.13-.2-.36.4-.16a5,5,0,0,1,.58,1.19Zm-1,1.88a6.08,6.08,0,0,0-.28-1.51l.45-.11a6.41,6.41,0,0,1,.27,1.47Zm1-1.81a5.8,5.8,0,0,1,.48,1.42l-.43.21A6,6,0,0,0,86.73,43Z"/><path class="cls-3" d="M96.66,43.13A8.19,8.19,0,0,0,101,48.55a4.46,4.46,0,0,0-.63.79A9.1,9.1,0,0,1,96,43.75a7.85,7.85,0,0,1-4.44,5.59,2.51,2.51,0,0,0-.62-.69,7.31,7.31,0,0,0,4.33-5.52H91.14v-.86h4.24a23.68,23.68,0,0,0,.17-3.21h.89a25.51,25.51,0,0,1-.18,3.21h4.6v.86Z"/><path class="cls-3" d="M114.27,47.16h-4.45v1.3c0,.44-.09.63-.43.76a6.78,6.78,0,0,1-1.79.11,3.54,3.54,0,0,0-.29-.71c.69,0,1.31,0,1.48,0s.23,0,.23-.2V47.16h-4.64v-.71H109V46a10.34,10.34,0,0,0,1.77-.86h-4.35v-.64h5.23l.17,0,.5.42a11.14,11.14,0,0,1-2.52,1.4v.2h4.45Zm-8.86-2h-.79v-2h.89l-.22-3.35a19.76,19.76,0,0,0,2.15-.56l.38.52a11.81,11.81,0,0,1-1.73.44l0,.56h1.61v.57h-1.58l0,.61h1.58v.58h-1.55l0,.63h6.1c0-.2,0-.4.07-.63h-1.61v-.58h1.65l.06-.61h-1.65v-.57h1.68l0-.61h-1.77v-.58h2.57c-.06,1.12-.16,2.58-.25,3.58h.87v2h-.81v-1.4h-7.83ZM110.18,43a6,6,0,0,0-.8-.65,7.91,7.91,0,0,1-1.12.73,2.7,2.7,0,0,0-.45-.44,6.58,6.58,0,0,0,1-.62,6.35,6.35,0,0,0-.8-.44l.42-.37c.27.12.56.29.85.45a4.53,4.53,0,0,0,.56-.6l.58.19a5.42,5.42,0,0,1-.65.72,5.07,5.07,0,0,1,.8.63Zm0-2a5.5,5.5,0,0,0-.77-.57,7.59,7.59,0,0,1-1,.67,3.26,3.26,0,0,0-.47-.4,6.67,6.67,0,0,0,1-.58c-.26-.16-.54-.29-.78-.41l.4-.37a9.28,9.28,0,0,1,.83.42,4.38,4.38,0,0,0,.52-.55l.58.15a4.31,4.31,0,0,1-.61.69c.3.2.57.38.77.53Z"/><path class="cls-3" d="M124,45.05v.51h2.65v3.77h-.78v-.44H119.5v.44h-.76V45.56h2.78v-.51h-3.91v-.59h10.1v.59Zm-5.77-5.13h-.34v-.54h4.88v.54h-3.88V43c0,.41.11.55.51.55h2.35a7.41,7.41,0,0,0,1-.06,4,4,0,0,0,.08.55,4.6,4.6,0,0,1-1,.07h-2.42c-.87,0-1.14-.3-1.14-1.12Zm2.87,2.13v0a9,9,0,0,1,1.39,1l-.35.39a9.36,9.36,0,0,0-1.23-.91,2.57,2.57,0,0,1-1.33,1,2.16,2.16,0,0,0-.37-.43,1.84,1.84,0,0,0,1.31-1h-1.39v-.49h1.48V41h-.68a3,3,0,0,1-.42.51,2.06,2.06,0,0,0-.46-.27,3.45,3.45,0,0,0,.82-1.23l.52.13a4.21,4.21,0,0,1-.17.39h2.22V41h-1.26v.61h1.46v.49Zm4.77,6.33V47.11h-1.55c-.79,0-1-.13-1-.72v-.32h-1.19c-.12.55-.65,1-2.23,1.25a2.54,2.54,0,0,0-.36-.5c1.29-.14,1.75-.44,1.9-.75h-2v2.31Zm-5.43-.9h4.63V48h-4.63Zm2.89-2.43h-1.17v.51h1.17Zm-.25-3.49a1.9,1.9,0,0,0-.45-.52c.83-.34,1-.72,1-1.12v-.57h2.65v1c0,.21,0,.27.15.27h.49a2.25,2.25,0,0,0,.46,0,5.51,5.51,0,0,0,.06.57,2.43,2.43,0,0,1-.49,0h-.62c-.6,0-.72-.23-.72-.85V40h-1.31a1.63,1.63,0,0,1-1,1.51h3l.14,0,.41.19a4.13,4.13,0,0,1-1.15,1.51c.53.25,1,.51,1.39.71l-.32.51c-.39-.23-1-.54-1.59-.85a6.93,6.93,0,0,1-2,.85,2.38,2.38,0,0,0-.35-.54,6.62,6.62,0,0,0,1.68-.61c-.46-.23-.92-.44-1.34-.61l.3-.44c.49.19,1.05.44,1.61.69a3.72,3.72,0,0,0,.84-.84h-2.79v-.47Zm.92,4.51v.32c0,.23,0,.26.39.26h1.48v-.57Z"/><path class="cls-3" d="M141,47.16h-4.45v1.3c0,.44-.09.63-.43.76a6.78,6.78,0,0,1-1.79.11,3.54,3.54,0,0,0-.29-.71c.69,0,1.31,0,1.48,0s.23,0,.23-.2V47.16h-4.64v-.71h4.64V46a10.34,10.34,0,0,0,1.77-.86h-4.35v-.64h5.23l.17,0,.5.42a11.14,11.14,0,0,1-2.52,1.4v.2H141Zm-8.86-2h-.79v-2h.89L132,39.71a19.76,19.76,0,0,0,2.15-.56l.38.52a11.81,11.81,0,0,1-1.73.44l.05.56h1.61v.57h-1.58l0,.61h1.58v.58H133l0,.63h6.1c0-.2,0-.4.07-.63h-1.61v-.58h1.66l0-.61h-1.65v-.57h1.68l0-.61h-1.77v-.58h2.57c-.06,1.12-.16,2.58-.25,3.58h.87v2h-.81v-1.4h-7.83ZM136.88,43a6,6,0,0,0-.8-.65,7.91,7.91,0,0,1-1.12.73,2.7,2.7,0,0,0-.45-.44,6.67,6.67,0,0,0,1.06-.62,7.23,7.23,0,0,0-.81-.44l.42-.37c.27.12.56.29.85.45a4.53,4.53,0,0,0,.56-.6l.58.19a5.42,5.42,0,0,1-.65.72,5.07,5.07,0,0,1,.8.63Zm0-2a5.5,5.5,0,0,0-.77-.57,7.59,7.59,0,0,1-1,.67,3.77,3.77,0,0,0-.46-.4,7.1,7.1,0,0,0,1-.58c-.26-.16-.54-.29-.78-.41l.4-.37a9.28,9.28,0,0,1,.83.42,5.4,5.4,0,0,0,.53-.55l.57.15a4.31,4.31,0,0,1-.61.69c.3.2.57.38.77.53Z"/><path class="cls-3" d="M147.9,39.8c-.33.92-.73,2-1.11,2.92a3.55,3.55,0,0,1,1,2.44,1.6,1.6,0,0,1-.43,1.31,1.06,1.06,0,0,1-.58.22,4.6,4.6,0,0,1-.75,0,1.73,1.73,0,0,0-.21-.74,3.61,3.61,0,0,0,.65,0,.63.63,0,0,0,.34-.11c.18-.12.24-.43.24-.79a3.4,3.4,0,0,0-1-2.27c.32-.81.65-1.78.88-2.54h-1.47v9.07h-.74V39.51h2.51l.14,0Zm5.61,8.7c.25,0,.29-.2.31-1.43a1.88,1.88,0,0,0,.71.31c-.06,1.47-.27,1.84-.94,1.84h-1c-.78,0-1-.24-1-1v-3h-1.17c-.18,2.07-.72,3.39-2.82,4.13a2.53,2.53,0,0,0-.48-.66c1.91-.61,2.36-1.72,2.5-3.47h-1.54v-.77h6.26v.77h-2v3c0,.28,0,.33.29.33Zm-4.65-6.08h-.77v-2h2.83a6.14,6.14,0,0,0-.6-1.24l.74-.25a8.24,8.24,0,0,1,.73,1.4l-.24.09h2.77v2h-.79V41.19h-4.67Zm.12.77v-.75h4.44v.75Z"/><path class="cls-3" d="M180.4,40.14v.72h-7.8v2.87c0,1.73-.22,4.11-1.59,5.65a2.71,2.71,0,0,0-.57-.55,6.07,6.07,0,0,0,1.31-3.42c-.45.3-.91.57-1.33.82l-.29-.75c.44-.21,1-.53,1.68-.88,0-.31,0-.59,0-.87V40.14H176a8.33,8.33,0,0,0-.53-.93l.72-.25a5.75,5.75,0,0,1,.69,1.18ZM171,43.56a8.47,8.47,0,0,0-.71-2.2l.63-.25a7.75,7.75,0,0,1,.73,2.14Zm2.09.43h3.08v2.17h-3.08Zm6,2.75h.78v2.61h-.78V49H173.2V46.74H174v1.52h2.17V46.33h.79v1.93h2.2Zm-5.41-1.17h1.8v-1h-1.8Zm5.18-2.13h-4.65v-2h4.65ZM178.16,42H175v.87h3.2Zm-1.25,2h3.21v2.17h-3.21Zm.63,1.58h1.9v-1h-1.9Z"/><path class="cls-3" d="M190,45.05v.51h2.65v3.77h-.78v-.44h-6.39v.44h-.75V45.56h2.78v-.51H183.6v-.59h10.11v.59Zm-5.76-5.13h-.35v-.54h4.89v.54H184.9V43c0,.41.11.55.52.55h2.34a7.41,7.41,0,0,0,1-.06c0,.18.05.41.08.55a4.55,4.55,0,0,1-1,.07h-2.43c-.87,0-1.13-.3-1.13-1.12Zm2.87,2.13v0a9,9,0,0,1,1.39,1l-.36.39a9.91,9.91,0,0,0-1.22-.91,2.65,2.65,0,0,1-1.34,1,1.88,1.88,0,0,0-.37-.43,1.86,1.86,0,0,0,1.32-1h-1.39v-.49h1.48V41h-.68a4.39,4.39,0,0,1-.42.51,2.32,2.32,0,0,0-.46-.27,3.42,3.42,0,0,0,.81-1.23l.52.13a4,4,0,0,1-.16.39h2.21V41h-1.26v.61h1.46v.49Zm4.76,6.33V47.11h-1.55c-.79,0-1-.13-1-.72v-.32h-1.19c-.12.55-.64,1-2.22,1.25a2.59,2.59,0,0,0-.37-.5c1.29-.14,1.76-.44,1.9-.75h-2v2.31Zm-5.43-.9h4.63V48h-4.63Zm2.89-2.43h-1.16v.51h1.16Zm-.24-3.49a1.93,1.93,0,0,0-.46-.52c.84-.34,1-.72,1-1.12v-.57h2.65v1c0,.21,0,.27.16.27h.49a2.22,2.22,0,0,0,.45,0c0,.16,0,.41.06.57a2.31,2.31,0,0,1-.49,0h-.61c-.6,0-.73-.23-.73-.85V40H190.3a1.63,1.63,0,0,1-1,1.51h3l.13,0,.41.19a4.22,4.22,0,0,1-1.14,1.51c.53.25,1,.51,1.39.71l-.33.51c-.39-.23-1-.54-1.59-.85a6.87,6.87,0,0,1-2,.85,2.42,2.42,0,0,0-.36-.54,6.62,6.62,0,0,0,1.68-.61c-.45-.23-.92-.44-1.33-.61l.3-.44c.49.19,1,.44,1.6.69a3.77,3.77,0,0,0,.85-.84h-2.8v-.47Zm.91,4.51v.32c0,.23.06.26.39.26h1.48v-.57Z"/><path class="cls-3" d="M206.46,41.05v5.29h-.85v-.65h-3.19v3.66h-.86V45.69h-3.18v.7h-.82V41.05h4V39h.86v2Zm-4.9,3.82v-3h-3.18v3Zm4.05,0v-3h-3.19v3Z"/><path class="cls-3" d="M212.14,43.18a23.47,23.47,0,0,1-1,4.42l-.83-.35a18,18,0,0,0,1-4.23Zm1.8-1v5.57c0,.52.13.62.77.62h2.12c.69,0,.79-.39.88-2.34a2.43,2.43,0,0,0,.78.37c-.12,2.14-.37,2.76-1.61,2.76h-2.24c-1.2,0-1.53-.3-1.53-1.42V42.17Zm.23-2.73a20.42,20.42,0,0,1,3,2.49l-.59.62a21.44,21.44,0,0,0-3-2.56ZM219,42.72A21.42,21.42,0,0,1,220.51,47l-.81.33A21.06,21.06,0,0,0,218.25,43Z"/><path class="cls-3" d="M230.06,45.05v.51h2.65v3.77h-.78v-.44h-6.39v.44h-.75V45.56h2.78v-.51h-3.92v-.59h10.11v.59Zm-5.76-5.13H224v-.54h4.89v.54H225V43c0,.41.12.55.52.55h2.35a7.63,7.63,0,0,0,1-.06c0,.18,0,.41.07.55a4.55,4.55,0,0,1-1,.07h-2.43c-.87,0-1.13-.3-1.13-1.12Zm2.87,2.13v0a9,9,0,0,1,1.39,1l-.36.39a9.91,9.91,0,0,0-1.22-.91,2.6,2.6,0,0,1-1.34,1,2.11,2.11,0,0,0-.36-.43,1.86,1.86,0,0,0,1.31-1h-1.39v-.49h1.48V41H226a3.57,3.57,0,0,1-.42.51,2.32,2.32,0,0,0-.46-.27,3.3,3.3,0,0,0,.81-1.23l.53.13c0,.13-.11.25-.17.39h2.21V41h-1.25v.61h1.45v.49Zm4.76,6.33V47.11h-1.54c-.79,0-1-.13-1-.72v-.32H228.2c-.12.55-.64,1-2.22,1.25a2.59,2.59,0,0,0-.37-.5c1.29-.14,1.76-.44,1.9-.75h-2v2.31Zm-5.43-.9h4.63V48H226.5Zm2.89-2.43h-1.16v.51h1.16Zm-.24-3.49a1.93,1.93,0,0,0-.46-.52c.84-.34,1-.72,1-1.12v-.57h2.64v1c0,.21,0,.27.16.27H233a2.38,2.38,0,0,0,.46,0c0,.16,0,.41.05.57a2.31,2.31,0,0,1-.49,0h-.61c-.6,0-.72-.23-.72-.85V40h-1.32a1.63,1.63,0,0,1-1,1.51h3l.13,0,.41.19a4.22,4.22,0,0,1-1.14,1.51c.53.25,1,.51,1.39.71l-.33.51c-.39-.23-1-.54-1.59-.85a6.87,6.87,0,0,1-2,.85,2.42,2.42,0,0,0-.36-.54,6.62,6.62,0,0,0,1.68-.61c-.45-.23-.92-.44-1.33-.61l.3-.44c.49.19,1.05.44,1.6.69A3.57,3.57,0,0,0,232,42h-2.8v-.47Zm.91,4.51v.32c0,.23.06.26.39.26h1.48v-.57Z"/><path class="cls-3" d="M240.6,39.8c-.34.92-.74,2-1.12,2.92a3.52,3.52,0,0,1,1,2.44,1.6,1.6,0,0,1-.44,1.31,1.06,1.06,0,0,1-.58.22,4.51,4.51,0,0,1-.74,0,1.73,1.73,0,0,0-.21-.74,3.49,3.49,0,0,0,.64,0,.66.66,0,0,0,.35-.11,1,1,0,0,0,.23-.79,3.38,3.38,0,0,0-1-2.27c.31-.81.64-1.78.88-2.54h-1.47v9.07h-.75V39.51h2.52l.13,0Zm5.61,8.7c.24,0,.29-.2.31-1.43a1.88,1.88,0,0,0,.71.31c-.07,1.47-.28,1.84-.95,1.84h-1c-.77,0-1-.24-1-1v-3h-1.17c-.19,2.07-.72,3.39-2.83,4.13a2.53,2.53,0,0,0-.48-.66c1.92-.61,2.36-1.72,2.51-3.47h-1.55v-.77h6.27v.77h-2v3c0,.28,0,.33.29.33Zm-4.66-6.08h-.76v-2h2.82a5.65,5.65,0,0,0-.6-1.24l.75-.25a7.48,7.48,0,0,1,.72,1.4l-.23.09H247v2h-.79V41.19h-4.68Zm.13.77v-.75h4.44v.75Z"/></g></svg>