<svg id="圖層_1" data-name="圖層 1" xmlns="http://www.w3.org/2000/svg" xmlns:xlink="http://www.w3.org/1999/xlink" viewBox="0 0 229.93 45.87" preserveAspectRatio="xMinYMid"><defs><style>.cls-1{fill:url(#未命名漸層_13);}.cls-2{fill:url(#未命名漸層_2);}.cls-3{fill:#fff;}</style><linearGradient id="未命名漸層_13" x1="-1.98" y1="41.1" x2="26.53" y2="12.59" gradientUnits="userSpaceOnUse"><stop offset="0" stop-color="#004987"/><stop offset="1" stop-color="#45a041"/></linearGradient><linearGradient id="未命名漸層_2" x1="3.61" y1="33.28" x2="32.12" y2="4.76" gradientUnits="userSpaceOnUse"><stop offset="0" stop-color="#f18a00"/><stop offset="1" stop-color="#ca003d"/></linearGradient></defs><path class="cls-1" d="M5.92,33.35a25.17,25.17,0,0,1,17-23.79.33.33,0,0,0,.2-.37A.31.31,0,0,0,22.73,9,25.78,25.78,0,0,0,0,34.56,25.48,25.48,0,0,0,2.42,45.47a.31.31,0,0,0,.28.18H8.6a.33.33,0,0,0,.27-.15.34.34,0,0,0,0-.31A25.13,25.13,0,0,1,5.92,33.35Z"/><path class="cls-2" d="M27.72.39a.31.31,0,0,0-.28-.18h-5.9a.32.32,0,0,0-.27.16.32.32,0,0,0,0,.3,25.28,25.28,0,0,1,2.95,11.85A25.18,25.18,0,0,1,7.28,36.31a.32.32,0,0,0-.21.36.3.3,0,0,0,.34.24,25.77,25.77,0,0,0,22.73-25.6A25.55,25.55,0,0,0,27.72.39Z"/><path class="cls-3" d="M35.51,17.74,38.78.49H43.1l2.28,6.58c.69,2.2,1.15,4,1.56,5.88H47a40.34,40.34,0,0,1,.79-6.19L49,.49h3.42L49.16,17.74H45.35L43,10.85a52.59,52.59,0,0,1-1.69-6l-.07,0C41,6.53,40.57,9,40.06,11.7l-1.13,6Z"/><path class="cls-3" d="M58.7,3.72H54.15L54.79.49H67.6L67,3.72H62.38l-2.63,14H56.07Z"/><path class="cls-3" d="M73.66.49l-1.89,9.93a9.61,9.61,0,0,0-.18,2,2.31,2.31,0,0,0,2.51,2.46c1.91,0,3.19-1.28,3.81-4.48L79.8.49h3.68l-1.86,9.8c-1,5.22-3.3,7.73-8,7.73-3.56,0-5.73-1.82-5.73-5.5a13.8,13.8,0,0,1,.25-2.41L70,.49Z"/><path class="cls-3" d="M101.92,17.32a11.77,11.77,0,0,1-4.55.74c-4.56,0-7.63-2.77-7.63-7.32a10,10,0,0,1,4.35-8.62A10.8,10.8,0,0,1,100.44.28a8.06,8.06,0,0,1,3.75.75l-1,3a7.56,7.56,0,0,0-3.12-.56,6.15,6.15,0,0,0-3.94,1.33,7,7,0,0,0-2.38,5.55c0,2.73,1.54,4.57,4.58,4.57a9,9,0,0,0,3.27-.56Z"/><path class="cls-3" d="M107.48,14.6l-1.43,3.14h-2.74l5.87-12.08h3.31l1.42,12.08H111.2L111,14.6Zm3.37-2L110.61,10c0-.67-.12-1.63-.18-2.37h0c-.31.74-.65,1.67-1,2.37l-1.2,2.59Z"/><path class="cls-3" d="M115.48,17.74l2.29-12.08h3l1.59,4.61a41.05,41.05,0,0,1,1.09,4.11h.06a28.67,28.67,0,0,1,.55-4.33l.83-4.39h2.4L125,17.74h-2.67l-1.68-4.82a37.17,37.17,0,0,1-1.18-4.21l-.05,0c-.15,1.16-.43,2.88-.79,4.78l-.79,4.23Z"/><path class="cls-3" d="M136.73,17.39a8.19,8.19,0,0,1-3.19.52c-3.19,0-5.33-1.93-5.33-5.12a7,7,0,0,1,3-6,7.52,7.52,0,0,1,4.44-1.29,5.63,5.63,0,0,1,2.63.52l-.7,2.09a5.27,5.27,0,0,0-2.18-.39,4.32,4.32,0,0,0-2.76.93A4.87,4.87,0,0,0,131,12.5a2.93,2.93,0,0,0,3.2,3.21,6.33,6.33,0,0,0,2.29-.4Z"/><path class="cls-3" d="M146.22,12.61h-4.3l-.56,2.92h4.82l-.41,2.21h-7.4l2.3-12.08h7.14l-.43,2.21h-4.55l-.5,2.57h4.3Z"/><path class="cls-3" d="M150.17,5.9a14.57,14.57,0,0,1,3.22-.33,6.21,6.21,0,0,1,3.17.7,2.62,2.62,0,0,1,1.34,2.37,3.53,3.53,0,0,1-2.73,3.4v.07c.71.31,1,1.11,1.14,2.2a20.21,20.21,0,0,0,.47,3.43h-2.65a20.19,20.19,0,0,1-.36-2.86c-.11-1.46-.61-1.91-1.63-1.91h-.79l-.89,4.77H147.9ZM151.73,11h1.07a2.17,2.17,0,0,0,2.42-2c0-1-.82-1.39-1.84-1.39a4,4,0,0,0-1,.09Z"/><path class="cls-3" d="M176.78,17.25a11.83,11.83,0,0,1-4.56.74c-4.55,0-7.62-2.77-7.62-7.32A10.06,10.06,0,0,1,169,2.05,10.79,10.79,0,0,1,175.29.21a8.08,8.08,0,0,1,3.76.75l-1,3a7.53,7.53,0,0,0-3.12-.56A6.24,6.24,0,0,0,171,4.71a7,7,0,0,0-2.37,5.56c0,2.73,1.53,4.58,4.57,4.58a9,9,0,0,0,3.28-.57Z"/><path class="cls-3" d="M186.82,12.61h-4.29L182,15.53h4.82l-.41,2.21H179l2.29-12.08h7.15L188,7.87h-4.55l-.5,2.57h4.29Z"/><path class="cls-3" d="M188.5,17.74l2.3-12.08h3l1.6,4.61c.48,1.54.8,2.79,1.09,4.11h.05a30.23,30.23,0,0,1,.56-4.33l.82-4.39h2.4l-2.27,12.08H195.4l-1.69-4.82a39.38,39.38,0,0,1-1.18-4.21l-.05,0c-.14,1.16-.43,2.88-.79,4.78l-.79,4.23Z"/><path class="cls-3" d="M204.74,7.92h-3.19L202,5.66h9l-.43,2.26h-3.22l-1.84,9.82H202.9Z"/><path class="cls-3" d="M218.24,12.61h-4.3l-.55,2.92h4.81l-.41,2.21H210.4l2.29-12.08h7.14l-.43,2.21h-4.54l-.51,2.57h4.3Z"/><path class="cls-3" d="M222.19,5.9a14.67,14.67,0,0,1,3.23-.33,6.2,6.2,0,0,1,3.16.7,2.63,2.63,0,0,1,1.35,2.37,3.54,3.54,0,0,1-2.74,3.4v.07c.71.31,1,1.11,1.14,2.2a21.3,21.3,0,0,0,.47,3.43h-2.65a20.19,20.19,0,0,1-.36-2.86c-.11-1.46-.61-1.91-1.63-1.91h-.79l-.89,4.77h-2.56ZM223.75,11h1.07a2.17,2.17,0,0,0,2.42-2c0-1-.82-1.39-1.84-1.39a3.81,3.81,0,0,0-1,.09Z"/><path class="cls-3" d="M41.17,34.55a21.48,21.48,0,0,1,3.7,4l-.79.55a10,10,0,0,0-.88-1.22c-8.08.46-8.86.48-9.36.68a7.89,7.89,0,0,0-.29-.91,3.1,3.1,0,0,0,1.12-.83,25.39,25.39,0,0,0,3.26-4l.9.42a29.1,29.1,0,0,1-3.67,4.18l7.38-.37A29.62,29.62,0,0,0,40.45,35Zm-6.54,5.26h8.8v5.75h-1v-.74H35.56v.77h-.93Zm.93.89v3.23h6.89V40.7Z"/><path class="cls-3" d="M76.57,37.88c1,3.13,2.83,5.7,5.51,6.83a4.86,4.86,0,0,0-.68.86c-2.71-1.28-4.54-3.85-5.61-7.11a9.85,9.85,0,0,1-5.61,7.13,3.37,3.37,0,0,0-.69-.77,9.15,9.15,0,0,0,5.45-6.94h-5.2v-1h5.37a28.44,28.44,0,0,0,.22-4h1a31.83,31.83,0,0,1-.24,4h5.8v1Z"/><path class="cls-3" d="M118.87,34.29v.8h-9.82v3.62c0,2.1-.27,5-2,6.89a3,3,0,0,0-.64-.6,7.47,7.47,0,0,0,1.66-4.34c-.58.36-1.17.69-1.71,1l-.34-.81c.56-.25,1.3-.66,2.12-1.09,0-.37,0-.72,0-1.07V34.29h5.21a8.05,8.05,0,0,0-.71-1.2l.81-.28a7.41,7.41,0,0,1,.87,1.48Zm-11.7,4.16a10.47,10.47,0,0,0-.89-2.72l.71-.28a10.11,10.11,0,0,1,.93,2.66Zm2.53.54h3.84v2.63H109.7Zm7.67,3.41h.87v3.19h-.87v-.51h-7.5V42.4h.86v1.9h2.85V41.87h.88V44.3h2.91Zm-7-1.43h2.37V39.64h-2.37Zm6.52-2.71H111.2V35.79h5.74Zm-.84-1.82H112V37.6h4.1ZM114.52,39h4v2.63h-4Zm.72,2h2.5V39.64h-2.5Z"/><path class="cls-3" d="M150.93,40.27v.65h3.34v4.65h-.88V45h-8.15v.57h-.85V40.92h3.46v-.65H143V39.6h12.6v.67ZM143.79,34h-.43v-.62h6.08V34h-4.91v3.86c0,.5.15.66.65.66h3a7.8,7.8,0,0,0,1.21-.07c0,.21,0,.48.08.63a5.71,5.71,0,0,1-1.25.08h-3.08c-1,0-1.36-.34-1.36-1.33Zm3.51,2.64,0,0a12.39,12.39,0,0,1,1.78,1.22l-.41.46a14.68,14.68,0,0,0-1.59-1.17,3,3,0,0,1-1.68,1.25,2.83,2.83,0,0,0-.43-.48,2.34,2.34,0,0,0,1.66-1.33h-1.78V36h1.9v-.8h-.91a4.57,4.57,0,0,1-.55.65,3,3,0,0,0-.53-.3,4.32,4.32,0,0,0,1-1.56l.6.15a5.12,5.12,0,0,1-.22.5H149v.56h-1.61V36h1.89v.57Zm6.09,7.83V42.8h-2c-1,0-1.2-.14-1.2-.83v-.45h-1.6c-.15.66-.79,1.21-2.79,1.56a2.19,2.19,0,0,0-.41-.57c1.66-.21,2.24-.58,2.42-1h-2.54v2.9Zm-6.9-1.13h5.84v.57h-5.84Zm3.67-3h-1.55v.65h1.55Zm-.37-4.3a2.19,2.19,0,0,0-.52-.57c1-.42,1.26-.91,1.26-1.39v-.73h3.25v1.35c0,.28,0,.34.18.34h.64a2.59,2.59,0,0,0,.56,0c0,.18,0,.45.06.64a2.6,2.6,0,0,1-.59,0h-.78c-.69,0-.85-.27-.85-1V34h-1.72V34a2,2,0,0,1-1.37,1.89h4l.13,0,.48.22A5.18,5.18,0,0,1,153,37.94c.68.32,1.31.66,1.75.92l-.36.59c-.48-.29-1.21-.68-2-1.07a9.22,9.22,0,0,1-2.49,1,3.25,3.25,0,0,0-.41-.61,8.9,8.9,0,0,0,2.16-.79c-.58-.29-1.18-.57-1.73-.81l.37-.49c.62.25,1.32.56,2,.88a4.86,4.86,0,0,0,1.09-1.08H149.9v-.62Zm1.14,5.55V42c0,.28.07.3.51.3h1.95v-.74Z"/><path class="cls-3" d="M191.55,35.4v6.44h-1V41h-4.13v4.54h-1V41h-4.12v.88h-.92V35.4h5V32.91h1V35.4Zm-6,4.72V36.3h-4.12v3.82Zm5.09,0V36.3h-4.13v3.82Z"/><path class="cls-3" d="M218.66,38a28.09,28.09,0,0,1-1.25,5.42l-.92-.41a21,21,0,0,0,1.28-5.19Zm2.23-1.25v7c0,.62.17.76,1,.76h2.8c.89,0,1-.5,1.13-2.95a2.94,2.94,0,0,0,.87.43c-.15,2.62-.43,3.4-2,3.4h-2.88c-1.45,0-1.87-.36-1.87-1.67V36.76Zm.35-3.31a25.84,25.84,0,0,1,3.73,3.1l-.66.69a24.46,24.46,0,0,0-3.68-3.19Zm6,4a24.86,24.86,0,0,1,1.88,5.23l-.89.35a25.65,25.65,0,0,0-1.84-5.25Z"/></svg>