<svg id="圖層_1" data-name="圖層 1" xmlns="http://www.w3.org/2000/svg" xmlns:xlink="http://www.w3.org/1999/xlink" viewBox="0 0 229.93 45.87"><defs><style>.cls-1{fill:url(#未命名漸層_13);}.cls-2{fill:url(#未命名漸層_2);}.cls-3{fill:#231815;}</style><linearGradient id="未命名漸層_13" x1="-1.98" y1="40.89" x2="26.53" y2="12.38" gradientUnits="userSpaceOnUse"><stop offset="0" stop-color="#004987"/><stop offset="1" stop-color="#45a041"/></linearGradient><linearGradient id="未命名漸層_2" x1="3.61" y1="33.06" x2="32.12" y2="4.55" gradientUnits="userSpaceOnUse"><stop offset="0" stop-color="#f18a00"/><stop offset="1" stop-color="#ca003d"/></linearGradient></defs><path class="cls-1" d="M5.92,33.13a25.17,25.17,0,0,1,17-23.79.32.32,0,0,0,.2-.36.3.3,0,0,0-.34-.24A25.79,25.79,0,0,0,2.42,45.26a.31.31,0,0,0,.28.18H8.6a.33.33,0,0,0,.27-.15.34.34,0,0,0,0-.31A25.17,25.17,0,0,1,5.92,33.13Z"/><path class="cls-2" d="M27.72.18A.3.3,0,0,0,27.44,0h-5.9a.33.33,0,0,0-.27.15.34.34,0,0,0,0,.31,25.28,25.28,0,0,1,2.95,11.85A25.19,25.19,0,0,1,7.28,36.1a.31.31,0,0,0-.21.36.3.3,0,0,0,.34.24A25.77,25.77,0,0,0,30.14,11.1,25.49,25.49,0,0,0,27.72.18Z"/><path class="cls-3" d="M35.51,17.52,38.78.28H43.1l2.28,6.58c.69,2.2,1.15,4,1.56,5.88H47a40.19,40.19,0,0,1,.79-6.19L49,.28h3.42L49.16,17.52H45.35L43,10.64a53.76,53.76,0,0,1-1.69-6l-.07,0c-.21,1.67-.62,4.13-1.13,6.83l-1.13,6Z"/><path class="cls-3" d="M58.7,3.5H54.15L54.79.28H67.6L67,3.5H62.38l-2.63,14H56.07Z"/><path class="cls-3" d="M73.66.28l-1.89,9.93a9.55,9.55,0,0,0-.18,2,2.31,2.31,0,0,0,2.51,2.46c1.91,0,3.19-1.28,3.81-4.48L79.8.28h3.68l-1.86,9.8c-1,5.21-3.3,7.72-8,7.72-3.56,0-5.73-1.81-5.73-5.5a13.79,13.79,0,0,1,.25-2.4L70,.28Z"/><path class="cls-3" d="M101.92,17.1a11.74,11.74,0,0,1-4.55.75c-4.56,0-7.63-2.77-7.63-7.32a10,10,0,0,1,4.35-8.62A10.8,10.8,0,0,1,100.44.07a8.23,8.23,0,0,1,3.75.74l-1,3a7.74,7.74,0,0,0-3.12-.56,6.15,6.15,0,0,0-3.94,1.33,7,7,0,0,0-2.38,5.55c0,2.74,1.54,4.58,4.58,4.58a9.2,9.2,0,0,0,3.27-.56Z"/><path class="cls-3" d="M107.48,14.39l-1.43,3.13h-2.74l5.87-12.07h3.31l1.42,12.07H111.2L111,14.39Zm3.37-2-.24-2.6c0-.66-.12-1.63-.18-2.36h0c-.31.73-.65,1.66-1,2.36l-1.2,2.6Z"/><path class="cls-3" d="M115.48,17.52l2.29-12.07h3l1.59,4.6a41.19,41.19,0,0,1,1.09,4.12h.06a28.67,28.67,0,0,1,.55-4.33l.83-4.39h2.4L125,17.52h-2.67l-1.68-4.81a37.76,37.76,0,0,1-1.18-4.21h-.05c-.15,1.17-.43,2.89-.79,4.78l-.79,4.23Z"/><path class="cls-3" d="M136.73,17.18a8.19,8.19,0,0,1-3.19.52c-3.19,0-5.33-1.93-5.33-5.12a7,7,0,0,1,3-6,7.52,7.52,0,0,1,4.44-1.29,5.81,5.81,0,0,1,2.63.51l-.7,2.1a5.27,5.27,0,0,0-2.18-.39,4.32,4.32,0,0,0-2.76.93A4.87,4.87,0,0,0,131,12.29a2.93,2.93,0,0,0,3.2,3.21,6.33,6.33,0,0,0,2.29-.4Z"/><path class="cls-3" d="M146.22,12.4h-4.3l-.56,2.92h4.82l-.41,2.2h-7.4l2.3-12.07h7.14l-.43,2.2h-4.55l-.5,2.58h4.3Z"/><path class="cls-3" d="M150.17,5.68a15.26,15.26,0,0,1,3.22-.32,6.21,6.21,0,0,1,3.17.7,2.62,2.62,0,0,1,1.34,2.36,3.51,3.51,0,0,1-2.73,3.4v.08c.71.3,1,1.11,1.14,2.2a19.9,19.9,0,0,0,.47,3.42h-2.65a19.72,19.72,0,0,1-.36-2.85c-.11-1.47-.61-1.91-1.63-1.91h-.79l-.89,4.76H147.9Zm1.56,5.14h1.07a2.17,2.17,0,0,0,2.42-2c0-1-.82-1.4-1.84-1.4a4.48,4.48,0,0,0-1,.09Z"/><path class="cls-3" d="M176.78,17a11.8,11.8,0,0,1-4.56.75c-4.55,0-7.62-2.77-7.62-7.32A10,10,0,0,1,169,1.84,10.79,10.79,0,0,1,175.29,0a8.08,8.08,0,0,1,3.76.75l-1,3a7.49,7.49,0,0,0-3.12-.57A6.19,6.19,0,0,0,171,4.5a7,7,0,0,0-2.37,5.55c0,2.74,1.53,4.58,4.57,4.58a9.22,9.22,0,0,0,3.28-.56Z"/><path class="cls-3" d="M186.82,12.4h-4.29L182,15.32h4.82l-.41,2.2H179l2.29-12.07h7.15L188,7.65h-4.55l-.5,2.58h4.29Z"/><path class="cls-3" d="M188.5,17.52l2.3-12.07h3l1.6,4.6c.48,1.54.8,2.8,1.09,4.12h.05a30.23,30.23,0,0,1,.56-4.33l.82-4.39h2.4l-2.27,12.07H195.4l-1.69-4.81a40,40,0,0,1-1.18-4.21h-.05c-.14,1.17-.43,2.89-.79,4.78l-.79,4.23Z"/><path class="cls-3" d="M204.74,7.71h-3.19L202,5.45h9l-.43,2.26h-3.22l-1.84,9.81H202.9Z"/><path class="cls-3" d="M218.24,12.4h-4.3l-.55,2.92h4.81l-.41,2.2H210.4l2.29-12.07h7.14l-.43,2.2h-4.54l-.51,2.58h4.3Z"/><path class="cls-3" d="M222.19,5.68a15.37,15.37,0,0,1,3.23-.32,6.2,6.2,0,0,1,3.16.7,2.63,2.63,0,0,1,1.35,2.36,3.52,3.52,0,0,1-2.74,3.4v.08c.71.3,1,1.11,1.14,2.2a21,21,0,0,0,.47,3.42h-2.65a19.72,19.72,0,0,1-.36-2.85c-.11-1.47-.61-1.91-1.63-1.91h-.79l-.89,4.76h-2.56Zm1.56,5.14h1.07a2.17,2.17,0,0,0,2.42-2c0-1-.82-1.4-1.84-1.4a4.31,4.31,0,0,0-1,.09Z"/><path class="cls-3" d="M41.17,34.34a21.76,21.76,0,0,1,3.7,4l-.79.56a10.89,10.89,0,0,0-.88-1.23c-8.08.46-8.86.49-9.36.69a7.89,7.89,0,0,0-.29-.91,3.23,3.23,0,0,0,1.12-.83,25.39,25.39,0,0,0,3.26-4l.9.42a29,29,0,0,1-3.67,4.17l7.38-.36a27.64,27.64,0,0,0-2.09-2.1ZM34.63,39.6h8.8v5.74h-1v-.73H35.56v.76h-.93Zm.93.89v3.23h6.89V40.49Z"/><path class="cls-3" d="M76.57,37.66c1,3.13,2.83,5.71,5.51,6.84a4.52,4.52,0,0,0-.68.86c-2.71-1.28-4.54-3.86-5.61-7.11a9.83,9.83,0,0,1-5.61,7.12,3.55,3.55,0,0,0-.69-.76,9.17,9.17,0,0,0,5.45-7h-5.2v-.94h5.37a28.51,28.51,0,0,0,.22-4h1a31.83,31.83,0,0,1-.24,4h5.8v.94Z"/><path class="cls-3" d="M118.87,34.07v.81h-9.82V38.5c0,2.1-.27,5-2,6.89a3,3,0,0,0-.64-.6,7.5,7.5,0,0,0,1.66-4.34c-.58.36-1.17.69-1.71,1l-.34-.81c.56-.25,1.3-.65,2.12-1.08,0-.38,0-.72,0-1.07V34.07h5.21a7.48,7.48,0,0,0-.71-1.19l.81-.28a7.35,7.35,0,0,1,.87,1.47Zm-11.7,4.16a10.41,10.41,0,0,0-.89-2.71l.71-.28a9.87,9.87,0,0,1,.93,2.66Zm2.53.55h3.84v2.63H109.7Zm7.67,3.41h.87v3.18h-.87v-.5h-7.5V42.19h.86v1.9h2.85V41.66h.88v2.43h2.91Zm-7-1.44h2.37V39.43h-2.37Zm6.52-2.7H111.2V35.58h5.74Zm-.84-1.82H112v1.15h4.1Zm-1.58,2.55h4v2.63h-4Zm.72,2h2.5V39.43h-2.5Z"/><path class="cls-3" d="M150.93,40.06v.65h3.34v4.65h-.88v-.57h-8.15v.57h-.85V40.71h3.46v-.65H143v-.67h12.6v.67Zm-7.14-6.32h-.43v-.63h6.08v.63h-4.91v3.85c0,.5.15.67.65.67h3a7.8,7.8,0,0,0,1.21-.07c0,.21,0,.47.08.63a5.71,5.71,0,0,1-1.25.08h-3.08c-1,0-1.36-.35-1.36-1.33Zm3.51,2.64,0,0a13.23,13.23,0,0,1,1.78,1.23l-.41.46a13.45,13.45,0,0,0-1.59-1.17,3.14,3.14,0,0,1-1.68,1.25,2.9,2.9,0,0,0-.43-.49,2.31,2.31,0,0,0,1.66-1.32h-1.78v-.57h1.9V35h-.91a4.57,4.57,0,0,1-.55.65,3.88,3.88,0,0,0-.53-.31,4.23,4.23,0,0,0,1-1.56l.6.16a5.12,5.12,0,0,1-.22.5H149V35h-1.61v.8h1.89v.57Zm6.09,7.82V42.59h-2c-1,0-1.2-.14-1.2-.84v-.44h-1.6c-.15.65-.79,1.21-2.79,1.56a2.19,2.19,0,0,0-.41-.57c1.66-.21,2.24-.59,2.42-1h-2.54V44.2Zm-6.9-1.12h5.84v.57h-5.84Zm3.67-3h-1.55v.65h1.55Zm-.37-4.3a2,2,0,0,0-.52-.57c1-.42,1.26-.91,1.26-1.4v-.72h3.25v1.35c0,.28,0,.33.18.33h.64a2.59,2.59,0,0,0,.56,0c0,.18,0,.46.06.64a2.6,2.6,0,0,1-.59,0h-.78c-.69,0-.85-.26-.85-1v-.66h-1.72v.06a2,2,0,0,1-1.37,1.89h4l.13,0,.48.22A5.18,5.18,0,0,1,153,37.73c.68.32,1.31.66,1.75.92l-.36.59c-.48-.3-1.21-.69-2-1.08a9.25,9.25,0,0,1-2.49,1.06,3.25,3.25,0,0,0-.41-.61,8.9,8.9,0,0,0,2.16-.79c-.58-.3-1.18-.57-1.73-.81l.37-.49c.62.25,1.32.56,2,.88a4.7,4.7,0,0,0,1.09-1.09H149.9V35.7Zm1.14,5.55v.44c0,.28.07.31.51.31h1.95v-.74Z"/><path class="cls-3" d="M191.55,35.19v6.44h-1v-.81h-4.13v4.54h-1V40.82h-4.12v.88h-.92V35.19h5v-2.5h1v2.5Zm-6,4.71V36.09h-4.12V39.9Zm5.09,0V36.09h-4.13V39.9Z"/><path class="cls-3" d="M218.66,37.8a28.09,28.09,0,0,1-1.25,5.42l-.92-.41a21,21,0,0,0,1.28-5.19Zm2.23-1.25v6.94c0,.63.17.77,1,.77h2.8c.89,0,1-.5,1.13-2.95a2.94,2.94,0,0,0,.87.43c-.15,2.62-.43,3.4-2,3.4h-2.88c-1.45,0-1.87-.37-1.87-1.67V36.55Zm.35-3.31a25.2,25.2,0,0,1,3.73,3.1l-.66.68a25,25,0,0,0-3.68-3.18Zm6,4a24.93,24.93,0,0,1,1.88,5.24l-.89.34a25.58,25.58,0,0,0-1.84-5.24Z"/></svg>