<svg xmlns="http://www.w3.org/2000/svg" xmlns:xlink="http://www.w3.org/1999/xlink" width="247.6" height="48.9" viewBox="0 0 247.6 48.9"><defs><style>.cls-1{isolation:isolate;}.cls-2{fill:url(#linear-gradient);}.cls-3{fill:url(#linear-gradient-2);}.cls-4{fill:#2e2624;}.cls-5{opacity:0.65;mix-blend-mode:multiply;}.cls-6{fill:#231815;}.cls-7{fill:url(#linear-gradient-3);}.cls-8{fill:#8c8d8d;}</style><linearGradient id="linear-gradient" x1="-2.13" y1="44.03" x2="28.57" y2="13.33" gradientUnits="userSpaceOnUse"><stop offset="0" stop-color="#005e85"/><stop offset="0.24" stop-color="#046281"/><stop offset="0.48" stop-color="#116e75"/><stop offset="0.73" stop-color="#258260"/><stop offset="0.98" stop-color="#429d44"/><stop offset="1" stop-color="#45a041"/></linearGradient><linearGradient id="linear-gradient-2" x1="3.89" y1="35.6" x2="34.59" y2="4.9" gradientUnits="userSpaceOnUse"><stop offset="0" stop-color="#f88d2b"/><stop offset="0.18" stop-color="#eb6e2c"/><stop offset="0.39" stop-color="#df512d"/><stop offset="0.6" stop-color="#d73d2e"/><stop offset="0.8" stop-color="#d2302f"/><stop offset="1" stop-color="#d02c2f"/></linearGradient><linearGradient id="linear-gradient-3" x1="98.73" y1="31.8" x2="113.5" y2="17.03" gradientUnits="userSpaceOnUse"><stop offset="0" stop-color="#eb5643"/><stop offset="0.1" stop-color="#ec6644"/><stop offset="0.37" stop-color="#ef8c46"/><stop offset="0.61" stop-color="#f1a747"/><stop offset="0.83" stop-color="#f3b748"/><stop offset="1" stop-color="#f3bd48"/></linearGradient></defs><title>logo</title><g class="cls-1"><g id="txt"><path class="cls-2" d="M6.4,35.7A27,27,0,0,1,24.6,10.1c.2-.1.3-.3.2-.4a.3.3,0,0,0-.3-.3A27.8,27.8,0,0,0,2.6,48.7c.1.2.2.2.3.2H9.3c.1,0,.2,0,.2-.1a.6.6,0,0,0,.1-.4A26.9,26.9,0,0,1,6.4,35.7Z"/><path class="cls-3" d="M29.9.2,29.5,0H23.2l-.3.2a.2.2,0,0,0,0,.3,26.9,26.9,0,0,1,3.2,12.7A27.1,27.1,0,0,1,7.8,38.9c-.1,0-.2.2-.2.4a.5.5,0,0,0,.4.2A27.8,27.8,0,0,0,29.9.2Z"/><path class="cls-4" d="M38.2,33.8l3.6-18.5h4.6l2.5,7c.7,2.4,1.2,4.3,1.6,6.4h.1a52.1,52.1,0,0,1,.9-6.7l1.2-6.7h3.7L52.9,33.8H48.8l-2.6-7.4a64.3,64.3,0,0,1-1.8-6.5h-.1c-.2,1.8-.6,4.4-1.2,7.3l-1.2,6.5Z"/><path class="cls-4" d="M63.2,18.7H58.3l.7-3.4H72.8l-.7,3.4H67.2L64.3,33.8H60.4Z"/><path class="cls-4" d="M79.3,15.3l-2,10.6a7.8,7.8,0,0,0-.2,2.2,2.5,2.5,0,0,0,2.7,2.7c2.1,0,3.4-1.4,4.1-4.8l2-10.7h4l-2,10.5c-1.1,5.6-3.6,8.3-8.6,8.3s-6.2-1.9-6.2-5.9a12.2,12.2,0,0,1,.3-2.6l2-10.3Z"/><g class="cls-5"><path class="cls-6" d="M110.6,34.4a11.4,11.4,0,0,1-4.9.8c-4.9,0-8.2-2.9-8.2-7.8a10.7,10.7,0,0,1,4.7-9.3,11.2,11.2,0,0,1,6.8-2,9.9,9.9,0,0,1,4.1.8L112,20.1a8.2,8.2,0,0,0-3.4-.6,6.6,6.6,0,0,0-4.2,1.4,7.5,7.5,0,0,0-2.6,6c0,3,1.7,4.9,5,4.9a9.1,9.1,0,0,0,3.5-.6Z"/></g><path class="cls-7" d="M109.8,33.3a13.7,13.7,0,0,1-4.9.8c-4.9,0-8.2-3-8.2-7.9a10.9,10.9,0,0,1,4.6-9.3,12.3,12.3,0,0,1,6.9-1.9,7.7,7.7,0,0,1,4,.8L111.1,19a7.3,7.3,0,0,0-3.3-.6,7.1,7.1,0,0,0-4.3,1.4,7.8,7.8,0,0,0-2.5,6c0,2.9,1.6,4.9,4.9,4.9a9.1,9.1,0,0,0,3.5-.6Z"/><path class="cls-4" d="M115.7,30.4l-1.5,3.4h-3l6.4-13h3.5l1.6,13h-3l-.2-3.4Zm3.7-2.1-.3-2.8c-.1-.7-.1-1.7-.2-2.5h0c-.4.8-.7,1.8-1.1,2.5l-1.3,2.8Z"/><path class="cls-4" d="M124.3,33.8l2.5-13h3.3l1.7,5c.5,1.6.9,3,1.2,4.4h0c.1-1.3.3-2.7.6-4.7l.9-4.7h2.6l-2.5,13h-2.8L130,28.6a28.1,28.1,0,0,1-1.3-4.5h-.1a52,52,0,0,1-.8,5.2l-.9,4.5Z"/><path class="cls-4" d="M147.2,33.5a9,9,0,0,1-3.4.5c-3.4,0-5.7-2.1-5.7-5.5a7.7,7.7,0,0,1,3.2-6.5,8.7,8.7,0,0,1,4.8-1.4,5,5,0,0,1,2.8.6l-.7,2.2a5.7,5.7,0,0,0-2.4-.4,4.3,4.3,0,0,0-2.9,1,5.3,5.3,0,0,0-1.8,4.2,3.1,3.1,0,0,0,3.4,3.4,6.6,6.6,0,0,0,2.5-.4Z"/><path class="cls-4" d="M157.4,28.3h-4.6l-.6,3.1h5.2l-.4,2.4h-8l2.5-13h7.7l-.5,2.4h-4.9l-.5,2.8h4.6Z"/><path class="cls-4" d="M161.7,21.1a16.9,16.9,0,0,1,3.5-.4,6.3,6.3,0,0,1,3.4.8A2.8,2.8,0,0,1,170,24a3.9,3.9,0,0,1-2.9,3.7h0c.8.3,1.1,1.2,1.2,2.3a33.4,33.4,0,0,0,.5,3.7H166a10.2,10.2,0,0,1-.4-3c-.1-1.6-.7-2.1-1.8-2.1H163l-1,5.1h-2.7Zm1.7,5.5h1.1a2.3,2.3,0,0,0,2.6-2.2c0-1-.8-1.5-1.9-1.5h-1.1Z"/><path class="cls-4" d="M190.3,33.3a12.8,12.8,0,0,1-4.9.8c-4.9,0-8.2-3-8.2-7.9a11,11,0,0,1,4.7-9.3,12.1,12.1,0,0,1,6.9-1.9,7.7,7.7,0,0,1,4,.8L191.7,19a7.3,7.3,0,0,0-3.3-.6,7.1,7.1,0,0,0-4.3,1.4,7.8,7.8,0,0,0-2.5,6c0,2.9,1.6,4.9,4.9,4.9a9.1,9.1,0,0,0,3.5-.6Z"/><path class="cls-4" d="M201.2,28.3h-4.7l-.6,3.1h5.2l-.4,2.4h-8l2.5-13h7.7l-.5,2.4h-4.9L197,26h4.6Z"/><path class="cls-4" d="M203,33.8l2.4-13h3.3l1.7,5c.5,1.6.9,3,1.2,4.4h.1a24,24,0,0,1,.6-4.7l.8-4.7h2.6l-2.4,13h-2.9l-1.8-5.2a44.5,44.5,0,0,1-1.3-4.5h0c-.2,1.3-.5,3.1-.9,5.2l-.8,4.5Z"/><path class="cls-4" d="M220.5,23.3H217l.5-2.5h9.7l-.5,2.5h-3.5l-1.9,10.5h-2.8Z"/><path class="cls-4" d="M235,28.3h-4.6l-.6,3.1H235l-.5,2.4h-7.9l2.4-13h7.7l-.5,2.4h-4.8l-.6,2.8h4.6Z"/><path class="cls-4" d="M239.3,21.1a15.1,15.1,0,0,1,3.4-.4,6.1,6.1,0,0,1,3.4.8,2.7,2.7,0,0,1,1.5,2.5c0,2-1.3,3.1-3,3.7h0c.8.3,1.1,1.2,1.3,2.3a13.5,13.5,0,0,0,.5,3.7h-2.9c-.1-.3-.2-1.4-.4-3s-.6-2.1-1.7-2.1h-.9l-.9,5.1h-2.8Zm1.6,5.5h1.2a2.3,2.3,0,0,0,2.6-2.2c0-1-.9-1.5-2-1.5h-1.1Z"/><path class="cls-8" d="M47.2,39.1v9.8h-.8v-.5H38.7v.5H38V39.1Zm-.8,8.6V39.9H38.7v7.8Zm-3.8-1.8-3.2.7-.2-.7,3.4-.6Zm2.8-3.3a8,8,0,0,1-1.3,2.8c.3.6.6,1,.9,1.1s.3-.5.4-1.2l.5.4c-.1,1.2-.5,1.6-1.1,1.4s-.8-.5-1.1-1.1a8.7,8.7,0,0,1-1.5,1.3l-.5-.5a6.1,6.1,0,0,0,1.7-1.5,13.9,13.9,0,0,1-.6-3.3H39.4v-.7h3.3c0-.4-.1-.7-.1-1.2h.7a5.3,5.3,0,0,1,.1,1.2h2.4V42H43.5a10.1,10.1,0,0,0,.4,2.6,10.2,10.2,0,0,0,.8-2.1Zm-3.2.1v2.2H39.7V42.7Zm-.6.5H40.3v1.2h1.3Zm3.5-2L44,40.4l.3-.4a2.8,2.8,0,0,1,1.2.8Z"/><path class="cls-8" d="M60.9,47.6v.8H51v-.8h5.4A31.9,31.9,0,0,0,58,42.1l1,.2c-.5,1.7-1.2,3.9-1.7,5.3Zm-.5-6.1H51.5v-.8h8.9Zm-6.3,5.6A45.2,45.2,0,0,0,53,42.4l.8-.3a35.8,35.8,0,0,1,1.1,4.8Zm1.6-6.5c-.1-.5-.4-1.3-.6-1.9l.8-.2a7.6,7.6,0,0,1,.6,1.8Z"/><path class="cls-8" d="M74.1,48v.6H64.4V48h4.4v-.6H65.5v-.5h3.3v-.6l-2.7.2c0-.2-.1-.5-.1-.6l.6-.2,1-.5H65.7v-.6h7.1v.6H71.5a6.4,6.4,0,0,1,1.6,1.1l-.5.4-.6-.5H69.7v.6h3.4v.5H69.7V48Zm-5.3-8.2H64.4v-.6h4.4v-.6h.9v.6h4.4v.6H69.7v.6h3.6V41h-8v-.6h3.5Zm4.3,5.4V44.1H65.4v1.1h-.7V43.6h9.2v1.6Zm-.3-3.8v1.7h-7V41.4Zm-.8.5H66.5v.7H72Zm-3.4,3.3-1.1.6h3.8l-.8-.6H68.6Z"/><path class="cls-8" d="M79.1,43.5a5.2,5.2,0,0,0-1.6-1.2l.5-.6a7.4,7.4,0,0,1,1.6,1.1Zm-1.4,4.8a27.3,27.3,0,0,0,1.4-3.6l.7.5-1.3,3.6Zm1.6-7.8-1.5-1.2.4-.6a7.4,7.4,0,0,1,1.6,1.2Zm1.2,2.2a3.8,3.8,0,0,1-.5,1.6l-.4-.3a5.8,5.8,0,0,0,.5-1.4Zm1.5-.4c0-.1-.1-.2-.1-.4l-1.9.4a.8.8,0,0,1-.2-.4l.5-.4.7-.9-1,.2a1.1,1.1,0,0,1-.2-.5l.3-.2a8.8,8.8,0,0,0,.7-1.4h.5l-.7,1.4h.7l.3-.5.5.2a8.6,8.6,0,0,1-1.4,1.8h1c-.1-.1-.1-.2-.2-.4h.4a6,6,0,0,1,.6,1.1Zm5.2,4.3s0,.3-.1.4-.4,1.5-.7,1.7l-.8.2H83.9c-.1-.1-.1-.4-.3-.6h2.2c.2-.1.3-.4.5-1H80.4a8.4,8.4,0,0,0,.5-1.7h5v-.6H80.5v-.5h6.2v1.7H81.6c-.1.2-.1.4-.2.5ZM81,44.1a9.3,9.3,0,0,0-.2-1.4h.4a8.9,8.9,0,0,1,.3,1.4Zm1-1.7a8.4,8.4,0,0,1,.4,1.2l-.4.2a8.4,8.4,0,0,0-.4-1.2Zm3-2.2H82.3v-.5h1.2a4.1,4.1,0,0,0-.5-.9h.6a2.6,2.6,0,0,1,.5.9H85Zm-2.4,2.1h2.1V44H82.6Zm2.1-1.2H82.6v-.5h2.1Zm-2.1.4h2.1v.4H82.6Zm.5,2h1v-.7h-1Zm2.6-.8a7.5,7.5,0,0,1-.5,1.6l-.4-.3a5.7,5.7,0,0,0,.4-1.4Zm1.5-.4c0-.1-.1-.2-.1-.4l-2,.3a1.4,1.4,0,0,0-.2-.4c.2,0,.3-.2.5-.4a3,3,0,0,0,.7-.8h-1a.8.8,0,0,0-.2-.4l.3-.3a2.6,2.6,0,0,0,.7-1.4l.6.2a4.1,4.1,0,0,1-.8,1.3h.7a.9.9,0,0,0,.3-.5l.6.2a12.4,12.4,0,0,1-1.4,1.8h1c-.1-.2-.2-.3-.2-.4h.4a5.4,5.4,0,0,1,.5,1.1Zm-1,1.9a9.9,9.9,0,0,0-.3-1.5h.4a4.4,4.4,0,0,1,.3,1.5Zm.9-1.8a3.4,3.4,0,0,1,.5,1.4l-.4.2a13.1,13.1,0,0,0-.5-1.5Z"/><path class="cls-8" d="M96.7,42.7c.8,2.5,2.2,4.5,4.3,5.4l-.6.8c-2.1-1-3.5-3-4.4-5.6a7.8,7.8,0,0,1-4.4,5.6,4.6,4.6,0,0,0-.7-.7,7.4,7.4,0,0,0,4.4-5.5H91.2v-.9h4.2a18.9,18.9,0,0,0,.2-3.2h.9c-.1.9-.1,2-.2,3.2h4.6v.9Z"/><path class="cls-8" d="M114.3,46.7h-4.5V48a.8.8,0,0,1-.4.8h-1.8a2.1,2.1,0,0,0-.3-.7h1.5c.2,0,.2-.1.2-.2V46.7h-4.6V46H109v-.5a6.1,6.1,0,0,0,1.8-.9h-4.3V44h5.3l.6.4a15.9,15.9,0,0,1-2.6,1.4V46h4.5Zm-8.9-2.1h-.8v-2h.9l-.2-3.4,2.2-.5.3.5-1.7.4v.6h1.6v.6h-1.6v.6h1.6V42h-1.5v.6h6.1c0-.2.1-.4.1-.6h-1.6v-.6h1.6v-.6h-1.7v-.6h1.7v-.6h-1.7V39h2.5c0,1.1-.1,2.6-.2,3.6h.9v2h-.8V43.2h-7.9Zm4.8-2.1-.8-.6-1.1.7-.5-.5a3,3,0,0,0,1.1-.6l-.8-.4.4-.4.8.5.6-.6.6.2-.7.7.8.6Zm0-2-.8-.6-1,.7-.5-.4,1-.6-.8-.4.4-.4.8.5.6-.6.5.2-.6.6.8.6Z"/><path class="cls-8" d="M124,44.6v.5h2.7v3.8h-.8v-.5h-6.4v.5h-.7V45.1h2.7v-.5h-3.9V44h10.1v.6Zm-5.7-5.1h-.4v-.6h4.9v.6h-3.9v3c0,.4.1.6.5.6h3.4a1.3,1.3,0,0,0,.1.6h-3.5c-.9,0-1.1-.3-1.1-1.1Zm2.8,2.1h0l1.4,1-.3.4-1.3-1a2,2,0,0,1-1.3,1c-.1-.1-.2-.3-.4-.4s1.2-.6,1.4-1h-1.4v-.5h1.4v-.5H120l-.5.5-.4-.3a5,5,0,0,0,.8-1.2h.5c0,.1-.1.3-.1.4h2.2v.5h-1.3V41h1.5v.5Zm4.8,6.3V46.6h-1.5c-.8,0-1-.1-1-.7v-.3h-1.2c-.1.6-.7,1-2.2,1.3l-.4-.5c1.3-.2,1.7-.5,1.9-.8h-2v2.3Zm-5.4-.9h4.6v.5h-4.6Zm2.9-2.4h-1.2v.5h1.2Zm-.3-3.5-.4-.5c.8-.4,1-.7,1-1.1v-.6h2.6v1c0,.2,0,.3.2.3h.9c0,.1,0,.4.1.5h-1.1c-.6,0-.8-.3-.8-.9v-.4h-1.3a1.6,1.6,0,0,1-1,1.5h3.2l.4.2a4.4,4.4,0,0,1-1.2,1.5,6,6,0,0,1,1.4.7l-.3.5-1.6-.8-2,.8-.3-.5,1.6-.7-1.3-.6.3-.4,1.6.7a7.6,7.6,0,0,0,.9-.9h-2.8v-.4Zm.9,4.5v.3c0,.3.1.3.4.3h1.5v-.6Z"/><path class="cls-8" d="M141,46.7h-4.5V48c0,.4,0,.6-.4.8h-1.8a2.1,2.1,0,0,0-.3-.7h1.5c.2,0,.2-.1.2-.2V46.7h-4.6V46h4.6v-.5a6.1,6.1,0,0,0,1.8-.9h-4.3V44h5.4l.5.4a15.9,15.9,0,0,1-2.6,1.4V46H141Zm-8.9-2.1h-.8v-2h.9l-.2-3.4,2.2-.5.3.5a7.1,7.1,0,0,1-1.7.4v.6h1.6v.6h-1.6v.6h1.6V42H133v.6h6.1c0-.2.1-.4.1-.6h-1.6v-.6h1.6v-.6h-1.7v-.6h1.7v-.6h-1.7V39h2.5c0,1.1-.1,2.6-.2,3.6h.9v2H140V43.2h-7.9Zm4.8-2.1-.8-.6-1.1.7-.5-.5a2.4,2.4,0,0,0,1.1-.6l-.8-.4.4-.4.9.5.5-.6.6.2-.7.7.8.6Zm0-2-.8-.6-1,.7-.5-.4,1-.6-.8-.4.4-.4.9.5.5-.6.6.2-.7.6.8.6Z"/><path class="cls-8" d="M147.9,39.3a26.5,26.5,0,0,1-1.1,3,3.5,3.5,0,0,1,1,2.4c0,.6-.1,1.1-.4,1.3l-.6.2h-.7c-.1-.2-.1-.5-.3-.7h1c.2-.1.3-.4.3-.8a3.1,3.1,0,0,0-1-2.2l.9-2.6h-1.5v9.1h-.8V39h2.7Zm5.6,8.7c.3,0,.3-.2.3-1.4a1.9,1.9,0,0,0,.8.3c-.1,1.5-.3,1.9-1,1.9h-1c-.7,0-.9-.3-.9-1.1V44.8h-1.2c-.2,2-.7,3.3-2.8,4.1l-.5-.7c1.9-.6,2.4-1.7,2.5-3.4h-1.5V44h6.2v.8h-1.9v2.9c0,.3,0,.3.2.3Zm-4.6-6h-.8V40h2.8a3.8,3.8,0,0,0-.6-1.3l.8-.2a4.6,4.6,0,0,1,.7,1.4h2.5v2h-.7V40.7h-4.7Zm.1.7V42h4.4v.7Z"/><path class="cls-8" d="M180.4,39.7v.7h-7.8v2.9c0,1.7-.2,4.1-1.6,5.6l-.5-.5a6.5,6.5,0,0,0,1.3-3.5l-1.3.9-.3-.8,1.6-.9a2.5,2.5,0,0,0,.1-.8V39.7H176l-.6-1,.8-.2.7,1.2ZM171,43.1a5.1,5.1,0,0,0-.7-2.2l.7-.3a11.1,11.1,0,0,1,.7,2.2Zm2.1.4h3.1v2.2h-3.1Zm6.1,2.8h.7v2.6h-.7v-.4h-6V46.3h.8v1.5h2.2V45.9h.8v1.9h2.2Zm-5.4-1.2h1.7v-1h-1.7Zm5.1-2.1h-4.6V40.9h4.6Zm-.7-1.5H175v.9h3.2Zm-1.3,2h3.2v2.2h-3.2Zm.7,1.6h1.9v-1h-1.9Z"/><path class="cls-8" d="M190,44.6v.5h2.7v3.8h-.8v-.5h-6.4v.5h-.7V45.1h2.8v-.5h-4V44h10.1v.6Zm-5.7-5.1h-.4v-.6h4.9v.6h-3.9v3c0,.4.1.6.6.6h3.3a1.3,1.3,0,0,0,.1.6h-3.5c-.9,0-1.1-.3-1.1-1.1Zm2.9,2.1h-.1a5.6,5.6,0,0,1,1.4,1l-.3.4L187,42a2.6,2.6,0,0,1-1.4,1l-.3-.4a2,2,0,0,0,1.3-1h-1.4v-.5h1.5v-.5H186l-.4.5-.5-.3a3.2,3.2,0,0,0,.8-1.2h.5c0,.1-.1.3-.1.4h2.2v.5h-1.3V41h1.5v.5Zm4.7,6.3V46.6h-1.5c-.8,0-1-.1-1-.7v-.3h-1.2c-.1.6-.7,1-2.2,1.3l-.4-.5c1.3-.2,1.8-.5,1.9-.8h-2v2.3Zm-5.4-.9h4.6v.5h-4.6Zm2.9-2.4h-1.2v.5h1.2Zm-.3-3.5-.4-.5c.8-.4,1-.7,1-1.1v-.6h2.6v1c0,.2,0,.3.2.3h.9c0,.1,0,.4.1.5h-1.1c-.6,0-.8-.3-.8-.9v-.4h-1.3a1.6,1.6,0,0,1-1,1.5h3.2l.4.2a4.4,4.4,0,0,1-1.2,1.5,6,6,0,0,1,1.4.7l-.3.5-1.6-.8-2,.8a.9.9,0,0,0-.3-.5l1.7-.7-1.4-.6.3-.4,1.6.7.9-.9h-2.8v-.4Zm.9,4.5v.3c0,.3.1.3.4.3h1.5v-.6Z"/><path class="cls-8" d="M206.5,40.6v5.3h-.9v-.7h-3.1v3.7h-.9V45.2h-3.2v.7h-.8V40.6h4v-2h.9v2Zm-4.9,3.8v-3h-3.2v3Zm4,0v-3h-3.1v3Z"/><path class="cls-8" d="M212.2,42.7a21.6,21.6,0,0,1-1,4.4l-.8-.3a19.8,19.8,0,0,0,1-4.2Zm1.8-1v5.6c0,.5.1.6.7.6h2.2c.7,0,.8-.4.8-2.3l.8.3c-.1,2.2-.3,2.8-1.6,2.8h-2.2c-1.2,0-1.6-.3-1.6-1.4V41.7Zm.2-2.7a19.8,19.8,0,0,1,3,2.5l-.6.6a26.2,26.2,0,0,0-2.9-2.6Zm4.9,3.3a18.8,18.8,0,0,1,1.4,4.2l-.8.3a20.7,20.7,0,0,0-1.4-4.2Z"/><path class="cls-8" d="M230.1,44.6v.5h2.6v3.8H232v-.5h-6.4v.5h-.8V45.1h2.8v-.5h-3.9V44h10.1v.6Zm-5.8-5.1H224v-.6h4.9v.6H225v3c0,.4.1.6.5.6h3.3a1.3,1.3,0,0,1,.1.6h-3.4c-.9,0-1.2-.3-1.2-1.1Zm2.9,2.1h0l1.4,1-.4.4a4.2,4.2,0,0,0-1.2-1,2,2,0,0,1-1.3,1l-.4-.4c.8-.3,1.2-.6,1.3-1h-1.4v-.5h1.5v-.5H226l-.4.5-.4-.3a5,5,0,0,0,.8-1.2h.5c-.1.1-.1.3-.2.4h2.2v.5h-1.2V41h1.4v.5Zm4.8,6.3V46.6h-1.6c-.8,0-1-.1-1-.7v-.3h-1.2c-.1.6-.6,1-2.2,1.3l-.3-.5c1.2-.2,1.7-.5,1.9-.8h-2v2.3Zm-5.5-.9h4.7v.5h-4.7Zm2.9-2.4h-1.1v.5h1.1Zm-.2-3.5a1.2,1.2,0,0,0-.5-.5c.9-.4,1-.7,1-1.1v-.6h2.7v1c0,.2,0,.3.1.3h1v.5h-1.1c-.6,0-.7-.3-.7-.9v-.4h-1.3a1.6,1.6,0,0,1-1,1.5h3.1l.4.2a3.3,3.3,0,0,1-1.1,1.5l1.4.7-.3.5-1.6-.8-2,.8a1,1,0,0,0-.4-.5l1.7-.7-1.3-.6.3-.4,1.6.7a3.4,3.4,0,0,0,.8-.9h-2.8v-.4Zm.9,4.5v.3c0,.3.1.3.4.3H232v-.6Z"/><path class="cls-8" d="M240.6,39.3a26.5,26.5,0,0,1-1.1,3,3.5,3.5,0,0,1,1,2.4c0,.6-.1,1.1-.4,1.3l-.6.2h-.7a1.9,1.9,0,0,0-.2-.7h1a1.3,1.3,0,0,0,.2-.8,3.1,3.1,0,0,0-1-2.2l.9-2.6h-1.5v9.1h-.7V39h2.6Zm5.6,8.7c.3,0,.3-.2.4-1.4a1.1,1.1,0,0,0,.7.3c-.1,1.5-.3,1.9-1,1.9h-1c-.7,0-.9-.3-.9-1.1V44.8h-1.2c-.2,2-.7,3.3-2.8,4.1l-.5-.7c1.9-.6,2.4-1.7,2.5-3.4h-1.5V44h6.2v.8h-1.9v2.9c0,.3,0,.3.3.3Zm-4.6-6h-.8V40h2.9l-.6-1.3.7-.2a4.6,4.6,0,0,1,.7,1.4h2.6v2h-.8V40.7h-4.7Zm.1.7V42h4.5v.7Z"/></g></g></svg>